<?xml version="1.0" encoding="UTF-8" standalone="no"?>
<!DOCTYPE svg PUBLIC "-//W3C//DTD SVG 1.1//EN"
 "http://www.w3.org/Graphics/SVG/1.1/DTD/svg11.dtd">
<!-- Generated by graphviz version 2.40.1 (20161225.0304)
 -->
<!-- Title: dependencies Pages: 1 -->
<svg width="2715pt" height="284pt"
 viewBox="0.00 0.00 2715.00 284.00" xmlns="http://www.w3.org/2000/svg" xmlns:xlink="http://www.w3.org/1999/xlink">
<g id="graph0" class="graph" transform="scale(1 1) rotate(0) translate(4 280)">
<title>dependencies</title>
<polygon fill="#ffffff" stroke="transparent" points="-4,4 -4,-280 2711,-280 2711,4 -4,4"/>
<text text-anchor="start" x="1332.5091" y="-42.4" font-family="sans-serif" font-weight="bold" font-size="14.00" fill="#000000">Legend</text>
<polygon fill="#ffffb3" stroke="transparent" points="1119.5,-10 1119.5,-30 1139.5,-30 1139.5,-10 1119.5,-10"/>
<text text-anchor="start" x="1143.129" y="-15.4" font-family="sans-serif" font-size="14.00" fill="#000000"> &#160;Declarations</text>
<polygon fill="#8dd3c7" stroke="transparent" points="1232.5,-10 1232.5,-30 1252.5,-30 1252.5,-10 1232.5,-10"/>
<text text-anchor="start" x="1256.2251" y="-15.4" font-family="sans-serif" font-size="14.00" fill="#000000"> &#160;Module</text>
<polygon fill="#80b1d3" stroke="transparent" points="1318.5,-10 1318.5,-30 1338.5,-30 1338.5,-10 1318.5,-10"/>
<text text-anchor="start" x="1342.2812" y="-15.4" font-family="sans-serif" font-size="14.00" fill="#000000"> &#160;Bootstrap</text>
<polygon fill="#fdb462" stroke="transparent" points="1415.5,-10 1415.5,-30 1435.5,-30 1435.5,-10 1415.5,-10"/>
<text text-anchor="start" x="1439.1732" y="-15.4" font-family="sans-serif" font-size="14.00" fill="#000000"> &#160;Providers</text>
<polygon fill="#fb8072" stroke="transparent" points="1511.5,-10 1511.5,-30 1531.5,-30 1531.5,-10 1511.5,-10"/>
<text text-anchor="start" x="1535.2258" y="-15.4" font-family="sans-serif" font-size="14.00" fill="#000000"> &#160;Exports</text>
<g id="clust1" class="cluster">
<title>cluster_AppModule</title>
<polygon fill="none" stroke="#000000" stroke-dasharray="1,5" points="8,-70 8,-268 2699,-268 2699,-70 8,-70"/>
</g>
<g id="clust2" class="cluster">
<title>cluster_AppModule_declarations</title>
<polygon fill="none" stroke="#000000" points="791,-78 791,-130 2691,-130 2691,-78 791,-78"/>
</g>
<g id="clust15" class="cluster">
<title>cluster_AppModule_imports</title>
<polygon fill="none" stroke="#000000" points="292,-78 292,-130 783,-130 783,-78 292,-78"/>
</g>
<g id="clust17" class="cluster">
<title>cluster_AppModule_bootstrap</title>
<polygon fill="none" stroke="#000000" points="1196,-208 1196,-260 1320,-260 1320,-208 1196,-208"/>
</g>
<g id="clust18" class="cluster">
<title>cluster_AppModule_providers</title>
<polygon fill="none" stroke="#000000" points="16,-78 16,-130 284,-130 284,-78 16,-78"/>
</g>
<!-- AddClubComponent -->
<g id="node1" class="node">
<title>AddClubComponent</title>
<polygon fill="#ffffb3" stroke="#000000" points="2683.1666,-122 2550.8334,-122 2550.8334,-86 2683.1666,-86 2683.1666,-122"/>
<text text-anchor="middle" x="2617" y="-99.8" font-family="Times,serif" font-size="14.00" fill="#000000">AddClubComponent</text>
</g>
<!-- AppModule -->
<g id="node13" class="node">
<title>AppModule</title>
<polygon fill="#8dd3c7" stroke="#000000" points="1299.6571,-187 1296.6571,-191 1275.6571,-191 1272.6571,-187 1216.3429,-187 1216.3429,-151 1299.6571,-151 1299.6571,-187"/>
<text text-anchor="middle" x="1258" y="-164.8" font-family="Times,serif" font-size="14.00" fill="#000000">AppModule</text>
</g>
<!-- AddClubComponent&#45;&gt;AppModule -->
<g id="edge1" class="edge">
<title>AddClubComponent&#45;&gt;AppModule</title>
<path fill="none" stroke="#000000" d="M2617,-122.3228C2617,-145.6602 2617,-183 2617,-183 2617,-183 1309.7875,-183 1309.7875,-183"/>
<polygon fill="#000000" stroke="#000000" points="1309.7876,-179.5001 1299.7875,-183 1309.7875,-186.5001 1309.7876,-179.5001"/>
</g>
<!-- AppComponent -->
<g id="node2" class="node">
<title>AppComponent</title>
<polygon fill="#ffffb3" stroke="#000000" points="2532.9399,-122 2427.0601,-122 2427.0601,-86 2532.9399,-86 2532.9399,-122"/>
<text text-anchor="middle" x="2480" y="-99.8" font-family="Times,serif" font-size="14.00" fill="#000000">AppComponent</text>
</g>
<!-- AppComponent&#45;&gt;AppModule -->
<g id="edge2" class="edge">
<title>AppComponent&#45;&gt;AppModule</title>
<path fill="none" stroke="#000000" d="M2480,-122.1554C2480,-144.3519 2480,-179 2480,-179 2480,-179 1309.7105,-179 1309.7105,-179"/>
<polygon fill="#000000" stroke="#000000" points="1309.7105,-175.5001 1299.7105,-179 1309.7105,-182.5001 1309.7105,-175.5001"/>
</g>
<!-- ChangeProfilePageComponent -->
<g id="node3" class="node">
<title>ChangeProfilePageComponent</title>
<polygon fill="#ffffb3" stroke="#000000" points="2409.91,-122 2220.09,-122 2220.09,-86 2409.91,-86 2409.91,-122"/>
<text text-anchor="middle" x="2315" y="-99.8" font-family="Times,serif" font-size="14.00" fill="#000000">ChangeProfilePageComponent</text>
</g>
<!-- ChangeProfilePageComponent&#45;&gt;AppModule -->
<g id="edge3" class="edge">
<title>ChangeProfilePageComponent&#45;&gt;AppModule</title>
<path fill="none" stroke="#000000" d="M2315,-122.2843C2315,-143.3211 2315,-175 2315,-175 2315,-175 1309.7612,-175 1309.7612,-175"/>
<polygon fill="#000000" stroke="#000000" points="1309.7612,-171.5001 1299.7612,-175 1309.7612,-178.5001 1309.7612,-171.5001"/>
</g>
<!-- ChatLoginComponent -->
<g id="node4" class="node">
<title>ChatLoginComponent</title>
<polygon fill="#ffffb3" stroke="#000000" points="2202.7176,-122 2061.2824,-122 2061.2824,-86 2202.7176,-86 2202.7176,-122"/>
<text text-anchor="middle" x="2132" y="-99.8" font-family="Times,serif" font-size="14.00" fill="#000000">ChatLoginComponent</text>
</g>
<!-- ChatLoginComponent&#45;&gt;AppModule -->
<g id="edge4" class="edge">
<title>ChatLoginComponent&#45;&gt;AppModule</title>
<path fill="none" stroke="#000000" d="M2132,-122.308C2132,-142.1455 2132,-171 2132,-171 2132,-171 1309.8604,-171 1309.8604,-171"/>
<polygon fill="#000000" stroke="#000000" points="1309.8604,-167.5001 1299.8604,-171 1309.8604,-174.5001 1309.8604,-167.5001"/>
</g>
<!-- CreateClubComponent -->
<g id="node5" class="node">
<title>CreateClubComponent</title>
<polygon fill="#ffffb3" stroke="#000000" points="2043.5912,-122 1898.4088,-122 1898.4088,-86 2043.5912,-86 2043.5912,-122"/>
<text text-anchor="middle" x="1971" y="-99.8" font-family="Times,serif" font-size="14.00" fill="#000000">CreateClubComponent</text>
</g>
<!-- CreateClubComponent&#45;&gt;AppModule -->
<g id="edge5" class="edge">
<title>CreateClubComponent&#45;&gt;AppModule</title>
<path fill="none" stroke="#000000" d="M1971,-122.2222C1971,-140.8285 1971,-167 1971,-167 1971,-167 1309.6773,-167 1309.6773,-167"/>
<polygon fill="#000000" stroke="#000000" points="1309.6773,-163.5001 1299.6773,-167 1309.6772,-170.5001 1309.6773,-163.5001"/>
</g>
<!-- DetailedViewComponent -->
<g id="node6" class="node">
<title>DetailedViewComponent</title>
<polygon fill="#ffffb3" stroke="#000000" points="1880.573,-122 1721.427,-122 1721.427,-86 1880.573,-86 1880.573,-122"/>
<text text-anchor="middle" x="1801" y="-99.8" font-family="Times,serif" font-size="14.00" fill="#000000">DetailedViewComponent</text>
</g>
<!-- DetailedViewComponent&#45;&gt;AppModule -->
<g id="edge6" class="edge">
<title>DetailedViewComponent&#45;&gt;AppModule</title>
<path fill="none" stroke="#000000" d="M1801,-122.0225C1801,-139.3734 1801,-163 1801,-163 1801,-163 1309.7067,-163 1309.7067,-163"/>
<polygon fill="#000000" stroke="#000000" points="1309.7067,-159.5001 1299.7067,-163 1309.7066,-166.5001 1309.7067,-159.5001"/>
</g>
<!-- EditClubComponent -->
<g id="node7" class="node">
<title>EditClubComponent</title>
<polygon fill="#ffffb3" stroke="#000000" points="1703.8934,-122 1572.1066,-122 1572.1066,-86 1703.8934,-86 1703.8934,-122"/>
<text text-anchor="middle" x="1638" y="-99.8" font-family="Times,serif" font-size="14.00" fill="#000000">EditClubComponent</text>
</g>
<!-- EditClubComponent&#45;&gt;AppModule -->
<g id="edge7" class="edge">
<title>EditClubComponent&#45;&gt;AppModule</title>
<path fill="none" stroke="#000000" d="M1638,-122.0091C1638,-138.0494 1638,-159 1638,-159 1638,-159 1309.7537,-159 1309.7537,-159"/>
<polygon fill="#000000" stroke="#000000" points="1309.7537,-155.5001 1299.7537,-159 1309.7536,-162.5001 1309.7537,-155.5001"/>
</g>
<!-- GroupViewComponent -->
<g id="node8" class="node">
<title>GroupViewComponent</title>
<polygon fill="#ffffb3" stroke="#000000" points="1553.9186,-122 1406.0814,-122 1406.0814,-86 1553.9186,-86 1553.9186,-122"/>
<text text-anchor="middle" x="1480" y="-99.8" font-family="Times,serif" font-size="14.00" fill="#000000">GroupViewComponent</text>
</g>
<!-- GroupViewComponent&#45;&gt;AppModule -->
<g id="edge8" class="edge">
<title>GroupViewComponent&#45;&gt;AppModule</title>
<path fill="none" stroke="#000000" d="M1480,-122.1243C1480,-136.7832 1480,-155 1480,-155 1480,-155 1309.7565,-155 1309.7565,-155"/>
<polygon fill="#000000" stroke="#000000" points="1309.7565,-151.5001 1299.7565,-155 1309.7565,-158.5001 1309.7565,-151.5001"/>
</g>
<!-- HeaderComponent -->
<g id="node9" class="node">
<title>HeaderComponent</title>
<polygon fill="#ffffb3" stroke="#000000" points="1387.7437,-122 1266.2563,-122 1266.2563,-86 1387.7437,-86 1387.7437,-122"/>
<text text-anchor="middle" x="1327" y="-99.8" font-family="Times,serif" font-size="14.00" fill="#000000">HeaderComponent</text>
</g>
<!-- HeaderComponent&#45;&gt;AppModule -->
<g id="edge9" class="edge">
<title>HeaderComponent&#45;&gt;AppModule</title>
<path fill="none" stroke="#000000" d="M1282.9783,-122.1061C1282.9783,-122.1061 1282.9783,-140.991 1282.9783,-140.991"/>
<polygon fill="#000000" stroke="#000000" points="1279.4783,-140.9909 1282.9783,-150.991 1286.4783,-140.991 1279.4783,-140.9909"/>
</g>
<!-- HomeComponent -->
<g id="node10" class="node">
<title>HomeComponent</title>
<polygon fill="#ffffb3" stroke="#000000" points="1247.5451,-122 1132.4549,-122 1132.4549,-86 1247.5451,-86 1247.5451,-122"/>
<text text-anchor="middle" x="1190" y="-99.8" font-family="Times,serif" font-size="14.00" fill="#000000">HomeComponent</text>
</g>
<!-- HomeComponent&#45;&gt;AppModule -->
<g id="edge10" class="edge">
<title>HomeComponent&#45;&gt;AppModule</title>
<path fill="none" stroke="#000000" d="M1231.972,-122.1061C1231.972,-122.1061 1231.972,-140.991 1231.972,-140.991"/>
<polygon fill="#000000" stroke="#000000" points="1228.472,-140.9909 1231.972,-150.991 1235.472,-140.991 1228.472,-140.9909"/>
</g>
<!-- JoinedClubsComponent -->
<g id="node11" class="node">
<title>JoinedClubsComponent</title>
<polygon fill="#ffffb3" stroke="#000000" points="1114.0547,-122 963.9453,-122 963.9453,-86 1114.0547,-86 1114.0547,-122"/>
<text text-anchor="middle" x="1039" y="-99.8" font-family="Times,serif" font-size="14.00" fill="#000000">JoinedClubsComponent</text>
</g>
<!-- JoinedClubsComponent&#45;&gt;AppModule -->
<g id="edge11" class="edge">
<title>JoinedClubsComponent&#45;&gt;AppModule</title>
<path fill="none" stroke="#000000" d="M1039,-122.1243C1039,-136.7832 1039,-155 1039,-155 1039,-155 1206.2923,-155 1206.2923,-155"/>
<polygon fill="#000000" stroke="#000000" points="1206.2923,-158.5001 1216.2923,-155 1206.2923,-151.5001 1206.2923,-158.5001"/>
</g>
<!-- ProfilePageComponent -->
<g id="node12" class="node">
<title>ProfilePageComponent</title>
<polygon fill="#ffffb3" stroke="#000000" points="945.1442,-122 798.8558,-122 798.8558,-86 945.1442,-86 945.1442,-122"/>
<text text-anchor="middle" x="872" y="-99.8" font-family="Times,serif" font-size="14.00" fill="#000000">ProfilePageComponent</text>
</g>
<!-- ProfilePageComponent&#45;&gt;AppModule -->
<g id="edge12" class="edge">
<title>ProfilePageComponent&#45;&gt;AppModule</title>
<path fill="none" stroke="#000000" d="M872,-122.0091C872,-138.0494 872,-159 872,-159 872,-159 1206.3245,-159 1206.3245,-159"/>
<polygon fill="#000000" stroke="#000000" points="1206.3245,-162.5001 1216.3245,-159 1206.3245,-155.5001 1206.3245,-162.5001"/>
</g>
<!-- AppComponent  -->
<g id="node18" class="node">
<title>AppComponent </title>
<polygon fill="#80b1d3" stroke="#000000" points="1312.439,-252 1203.561,-252 1203.561,-216 1312.439,-216 1312.439,-252"/>
<text text-anchor="middle" x="1258" y="-229.8" font-family="Times,serif" font-size="14.00" fill="#000000">AppComponent </text>
</g>
<!-- AppModule&#45;&gt;AppComponent  -->
<g id="edge17" class="edge">
<title>AppModule&#45;&gt;AppComponent </title>
<path fill="none" stroke="#000000" stroke-dasharray="1,5" d="M1258,-187.1061C1258,-187.1061 1258,-205.991 1258,-205.991"/>
<polygon fill="#000000" stroke="#000000" points="1254.5001,-205.9909 1258,-215.991 1261.5001,-205.991 1254.5001,-205.9909"/>
</g>
<!-- AppRoutingModule -->
<g id="node14" class="node">
<title>AppRoutingModule</title>
<polygon fill="#8dd3c7" stroke="#000000" points="775.2744,-122 772.2744,-126 751.2744,-126 748.2744,-122 646.7256,-122 646.7256,-86 775.2744,-86 775.2744,-122"/>
<text text-anchor="middle" x="711" y="-99.8" font-family="Times,serif" font-size="14.00" fill="#000000">AppRoutingModule</text>
</g>
<!-- AppRoutingModule&#45;&gt;AppModule -->
<g id="edge13" class="edge">
<title>AppRoutingModule&#45;&gt;AppModule</title>
<path fill="none" stroke="#000000" d="M711,-122.0225C711,-139.3734 711,-163 711,-163 711,-163 1205.9861,-163 1205.9861,-163"/>
<polygon fill="#000000" stroke="#000000" points="1205.9861,-166.5001 1215.9861,-163 1205.9861,-159.5001 1205.9861,-166.5001"/>
</g>
<!-- AuthModule -->
<g id="node15" class="node">
<title>AuthModule</title>
<polygon fill="#8dd3c7" stroke="#000000" points="628.5482,-122 625.5482,-126 604.5482,-126 601.5482,-122 541.4518,-122 541.4518,-86 628.5482,-86 628.5482,-122"/>
<text text-anchor="middle" x="585" y="-99.8" font-family="Times,serif" font-size="14.00" fill="#000000">AuthModule</text>
</g>
<!-- AuthModule&#45;&gt;AppModule -->
<g id="edge14" class="edge">
<title>AuthModule&#45;&gt;AppModule</title>
<path fill="none" stroke="#000000" d="M585,-122.2222C585,-140.8285 585,-167 585,-167 585,-167 1206.1551,-167 1206.1551,-167"/>
<polygon fill="#000000" stroke="#000000" points="1206.1551,-170.5001 1216.1551,-167 1206.1551,-163.5001 1206.1551,-170.5001"/>
</g>
<!-- MaterialModule -->
<g id="node16" class="node">
<title>MaterialModule</title>
<polygon fill="#8dd3c7" stroke="#000000" points="523.4706,-122 520.4706,-126 499.4706,-126 496.4706,-122 416.5294,-122 416.5294,-86 523.4706,-86 523.4706,-122"/>
<text text-anchor="middle" x="470" y="-99.8" font-family="Times,serif" font-size="14.00" fill="#000000">MaterialModule</text>
</g>
<!-- MaterialModule&#45;&gt;AppModule -->
<g id="edge15" class="edge">
<title>MaterialModule&#45;&gt;AppModule</title>
<path fill="none" stroke="#000000" d="M470,-122.308C470,-142.1455 470,-171 470,-171 470,-171 1206.1901,-171 1206.1901,-171"/>
<polygon fill="#000000" stroke="#000000" points="1206.1901,-174.5001 1216.1901,-171 1206.19,-167.5001 1206.1901,-174.5001"/>
</g>
<!-- SharedModule -->
<g id="node17" class="node">
<title>SharedModule</title>
<polygon fill="#8dd3c7" stroke="#000000" points="398.4231,-122 395.4231,-126 374.4231,-126 371.4231,-122 299.5769,-122 299.5769,-86 398.4231,-86 398.4231,-122"/>
<text text-anchor="middle" x="349" y="-99.8" font-family="Times,serif" font-size="14.00" fill="#000000">SharedModule</text>
</g>
<!-- SharedModule&#45;&gt;AppModule -->
<g id="edge16" class="edge">
<title>SharedModule&#45;&gt;AppModule</title>
<path fill="none" stroke="#000000" d="M349,-122.2843C349,-143.3211 349,-175 349,-175 349,-175 1206.2806,-175 1206.2806,-175"/>
<polygon fill="#000000" stroke="#000000" points="1206.2806,-178.5001 1216.2806,-175 1206.2806,-171.5001 1206.2806,-178.5001"/>
</g>
<!-- ClubService -->
<g id="node19" class="node">
<title>ClubService</title>
<ellipse fill="#fdb462" stroke="#000000" cx="217" cy="-104" rx="58.5463" ry="18"/>
<text text-anchor="middle" x="217" y="-99.8" font-family="Times,serif" font-size="14.00" fill="#000000">ClubService</text>
</g>
<!-- ClubService&#45;&gt;AppModule -->
<g id="edge18" class="edge">
<title>ClubService&#45;&gt;AppModule</title>
<path fill="none" stroke="#000000" d="M217,-122.1554C217,-144.3519 217,-179 217,-179 217,-179 1206.2263,-179 1206.2263,-179"/>
<polygon fill="#000000" stroke="#000000" points="1206.2263,-182.5001 1216.2263,-179 1206.2262,-175.5001 1206.2263,-182.5001"/>
</g>
<!-- UserService -->
<g id="node20" class="node">
<title>UserService</title>
<ellipse fill="#fdb462" stroke="#000000" cx="82" cy="-104" rx="58.4415" ry="18"/>
<text text-anchor="middle" x="82" y="-99.8" font-family="Times,serif" font-size="14.00" fill="#000000">UserService</text>
</g>
<!-- UserService&#45;&gt;AppModule -->
<g id="edge19" class="edge">
<title>UserService&#45;&gt;AppModule</title>
<path fill="none" stroke="#000000" d="M82,-122.3228C82,-145.6602 82,-183 82,-183 82,-183 1206.1455,-183 1206.1455,-183"/>
<polygon fill="#000000" stroke="#000000" points="1206.1456,-186.5001 1216.1455,-183 1206.1455,-179.5001 1206.1456,-186.5001"/>
</g>
</g>
</svg>
