<?xml version="1.0" encoding="UTF-8" standalone="no"?>
<!DOCTYPE svg PUBLIC "-//W3C//DTD SVG 1.1//EN"
 "http://www.w3.org/Graphics/SVG/1.1/DTD/svg11.dtd">
<!-- Generated by graphviz version 2.40.1 (20161225.0304)
 -->
<!-- Title: dependencies Pages: 1 -->
<svg width="2832pt" height="284pt"
 viewBox="0.00 0.00 2832.00 284.00" xmlns="http://www.w3.org/2000/svg" xmlns:xlink="http://www.w3.org/1999/xlink">
<g id="graph0" class="graph" transform="scale(1 1) rotate(0) translate(4 280)">
<title>dependencies</title>
<polygon fill="#ffffff" stroke="transparent" points="-4,4 -4,-280 2828,-280 2828,4 -4,4"/>
<text text-anchor="start" x="1391.0091" y="-42.4" font-family="sans-serif" font-weight="bold" font-size="14.00" fill="#000000">Legend</text>
<polygon fill="#ffffb3" stroke="transparent" points="1178,-10 1178,-30 1198,-30 1198,-10 1178,-10"/>
<text text-anchor="start" x="1201.629" y="-15.4" font-family="sans-serif" font-size="14.00" fill="#000000"> &#160;Declarations</text>
<polygon fill="#8dd3c7" stroke="transparent" points="1291,-10 1291,-30 1311,-30 1311,-10 1291,-10"/>
<text text-anchor="start" x="1314.7251" y="-15.4" font-family="sans-serif" font-size="14.00" fill="#000000"> &#160;Module</text>
<polygon fill="#80b1d3" stroke="transparent" points="1377,-10 1377,-30 1397,-30 1397,-10 1377,-10"/>
<text text-anchor="start" x="1400.7812" y="-15.4" font-family="sans-serif" font-size="14.00" fill="#000000"> &#160;Bootstrap</text>
<polygon fill="#fdb462" stroke="transparent" points="1474,-10 1474,-30 1494,-30 1494,-10 1474,-10"/>
<text text-anchor="start" x="1497.6732" y="-15.4" font-family="sans-serif" font-size="14.00" fill="#000000"> &#160;Providers</text>
<polygon fill="#fb8072" stroke="transparent" points="1570,-10 1570,-30 1590,-30 1590,-10 1570,-10"/>
<text text-anchor="start" x="1593.7258" y="-15.4" font-family="sans-serif" font-size="14.00" fill="#000000"> &#160;Exports</text>
<g id="clust1" class="cluster">
<title>cluster_AppModule</title>
<polygon fill="none" stroke="#000000" stroke-dasharray="1,5" points="8,-70 8,-268 2816,-268 2816,-70 8,-70"/>
</g>
<g id="clust2" class="cluster">
<title>cluster_AppModule_declarations</title>
<polygon fill="none" stroke="#000000" points="908,-78 908,-130 2808,-130 2808,-78 908,-78"/>
</g>
<g id="clust15" class="cluster">
<title>cluster_AppModule_imports</title>
<polygon fill="none" stroke="#000000" points="292,-78 292,-130 900,-130 900,-78 292,-78"/>
</g>
<g id="clust17" class="cluster">
<title>cluster_AppModule_bootstrap</title>
<polygon fill="none" stroke="#000000" points="1245,-208 1245,-260 1369,-260 1369,-208 1245,-208"/>
</g>
<g id="clust18" class="cluster">
<title>cluster_AppModule_providers</title>
<polygon fill="none" stroke="#000000" points="16,-78 16,-130 284,-130 284,-78 16,-78"/>
</g>
<!-- AddClubComponent -->
<g id="node1" class="node">
<title>AddClubComponent</title>
<polygon fill="#ffffb3" stroke="#000000" points="2800.1666,-122 2667.8334,-122 2667.8334,-86 2800.1666,-86 2800.1666,-122"/>
<text text-anchor="middle" x="2734" y="-99.8" font-family="Times,serif" font-size="14.00" fill="#000000">AddClubComponent</text>
</g>
<!-- AppModule -->
<g id="node13" class="node">
<title>AppModule</title>
<polygon fill="#8dd3c7" stroke="#000000" points="1348.6571,-187 1345.6571,-191 1324.6571,-191 1321.6571,-187 1265.3429,-187 1265.3429,-151 1348.6571,-151 1348.6571,-187"/>
<text text-anchor="middle" x="1307" y="-164.8" font-family="Times,serif" font-size="14.00" fill="#000000">AppModule</text>
</g>
<!-- AddClubComponent&#45;&gt;AppModule -->
<g id="edge1" class="edge">
<title>AddClubComponent&#45;&gt;AppModule</title>
<path fill="none" stroke="#000000" d="M2734,-122.1532C2734,-145.7566 2734,-184 2734,-184 2734,-184 1358.9346,-184 1358.9346,-184"/>
<polygon fill="#000000" stroke="#000000" points="1358.9346,-180.5001 1348.9346,-184 1358.9345,-187.5001 1358.9346,-180.5001"/>
</g>
<!-- AppComponent -->
<g id="node2" class="node">
<title>AppComponent</title>
<polygon fill="#ffffb3" stroke="#000000" points="2649.9399,-122 2544.0601,-122 2544.0601,-86 2649.9399,-86 2649.9399,-122"/>
<text text-anchor="middle" x="2597" y="-99.8" font-family="Times,serif" font-size="14.00" fill="#000000">AppComponent</text>
</g>
<!-- AppComponent&#45;&gt;AppModule -->
<g id="edge2" class="edge">
<title>AppComponent&#45;&gt;AppModule</title>
<path fill="none" stroke="#000000" d="M2597,-122.0109C2597,-144.4852 2597,-180 2597,-180 2597,-180 1358.8227,-180 1358.8227,-180"/>
<polygon fill="#000000" stroke="#000000" points="1358.8227,-176.5001 1348.8227,-180 1358.8226,-183.5001 1358.8227,-176.5001"/>
</g>
<!-- ChangeProfilePageComponent -->
<g id="node3" class="node">
<title>ChangeProfilePageComponent</title>
<polygon fill="#ffffb3" stroke="#000000" points="2526.91,-122 2337.09,-122 2337.09,-86 2526.91,-86 2526.91,-122"/>
<text text-anchor="middle" x="2432" y="-99.8" font-family="Times,serif" font-size="14.00" fill="#000000">ChangeProfilePageComponent</text>
</g>
<!-- ChangeProfilePageComponent&#45;&gt;AppModule -->
<g id="edge3" class="edge">
<title>ChangeProfilePageComponent&#45;&gt;AppModule</title>
<path fill="none" stroke="#000000" d="M2432,-122.0449C2432,-143.6623 2432,-177 2432,-177 2432,-177 1358.7102,-177 1358.7102,-177"/>
<polygon fill="#000000" stroke="#000000" points="1358.7102,-173.5001 1348.7102,-177 1358.7102,-180.5001 1358.7102,-173.5001"/>
</g>
<!-- ChatLoginComponent -->
<g id="node4" class="node">
<title>ChatLoginComponent</title>
<polygon fill="#ffffb3" stroke="#000000" points="2319.7176,-122 2178.2824,-122 2178.2824,-86 2319.7176,-86 2319.7176,-122"/>
<text text-anchor="middle" x="2249" y="-99.8" font-family="Times,serif" font-size="14.00" fill="#000000">ChatLoginComponent</text>
</g>
<!-- ChatLoginComponent&#45;&gt;AppModule -->
<g id="edge4" class="edge">
<title>ChatLoginComponent&#45;&gt;AppModule</title>
<path fill="none" stroke="#000000" d="M2249,-122.1289C2249,-142.5724 2249,-173 2249,-173 2249,-173 1358.692,-173 1358.692,-173"/>
<polygon fill="#000000" stroke="#000000" points="1358.6921,-169.5001 1348.692,-173 1358.692,-176.5001 1358.6921,-169.5001"/>
</g>
<!-- CreateClubComponent -->
<g id="node5" class="node">
<title>CreateClubComponent</title>
<polygon fill="#ffffb3" stroke="#000000" points="2160.5912,-122 2015.4088,-122 2015.4088,-86 2160.5912,-86 2160.5912,-122"/>
<text text-anchor="middle" x="2088" y="-99.8" font-family="Times,serif" font-size="14.00" fill="#000000">CreateClubComponent</text>
</g>
<!-- CreateClubComponent&#45;&gt;AppModule -->
<g id="edge5" class="edge">
<title>CreateClubComponent&#45;&gt;AppModule</title>
<path fill="none" stroke="#000000" d="M2088,-122.1061C2088,-141.3391 2088,-169 2088,-169 2088,-169 1358.7138,-169 1358.7138,-169"/>
<polygon fill="#000000" stroke="#000000" points="1358.7139,-165.5001 1348.7138,-169 1358.7138,-172.5001 1358.7139,-165.5001"/>
</g>
<!-- DetailedViewComponent -->
<g id="node6" class="node">
<title>DetailedViewComponent</title>
<polygon fill="#ffffb3" stroke="#000000" points="1997.573,-122 1838.427,-122 1838.427,-86 1997.573,-86 1997.573,-122"/>
<text text-anchor="middle" x="1918" y="-99.8" font-family="Times,serif" font-size="14.00" fill="#000000">DetailedViewComponent</text>
</g>
<!-- DetailedViewComponent&#45;&gt;AppModule -->
<g id="edge6" class="edge">
<title>DetailedViewComponent&#45;&gt;AppModule</title>
<path fill="none" stroke="#000000" d="M1918,-122.2667C1918,-140.5552 1918,-166 1918,-166 1918,-166 1358.9965,-166 1358.9965,-166"/>
<polygon fill="#000000" stroke="#000000" points="1358.9965,-162.5001 1348.9965,-166 1358.9965,-169.5001 1358.9965,-162.5001"/>
</g>
<!-- EditClubComponent -->
<g id="node7" class="node">
<title>EditClubComponent</title>
<polygon fill="#ffffb3" stroke="#000000" points="1820.8934,-122 1689.1066,-122 1689.1066,-86 1820.8934,-86 1820.8934,-122"/>
<text text-anchor="middle" x="1755" y="-99.8" font-family="Times,serif" font-size="14.00" fill="#000000">EditClubComponent</text>
</g>
<!-- EditClubComponent&#45;&gt;AppModule -->
<g id="edge7" class="edge">
<title>EditClubComponent&#45;&gt;AppModule</title>
<path fill="none" stroke="#000000" d="M1755,-122.0336C1755,-139.0597 1755,-162 1755,-162 1755,-162 1358.7445,-162 1358.7445,-162"/>
<polygon fill="#000000" stroke="#000000" points="1358.7445,-158.5001 1348.7445,-162 1358.7444,-165.5001 1358.7445,-158.5001"/>
</g>
<!-- GroupViewComponent -->
<g id="node8" class="node">
<title>GroupViewComponent</title>
<polygon fill="#ffffb3" stroke="#000000" points="1670.9186,-122 1523.0814,-122 1523.0814,-86 1670.9186,-86 1670.9186,-122"/>
<text text-anchor="middle" x="1597" y="-99.8" font-family="Times,serif" font-size="14.00" fill="#000000">GroupViewComponent</text>
</g>
<!-- GroupViewComponent&#45;&gt;AppModule -->
<g id="edge8" class="edge">
<title>GroupViewComponent&#45;&gt;AppModule</title>
<path fill="none" stroke="#000000" d="M1597,-122.0091C1597,-138.0494 1597,-159 1597,-159 1597,-159 1358.8588,-159 1358.8588,-159"/>
<polygon fill="#000000" stroke="#000000" points="1358.8588,-155.5001 1348.8588,-159 1358.8587,-162.5001 1358.8588,-155.5001"/>
</g>
<!-- HeaderComponent -->
<g id="node9" class="node">
<title>HeaderComponent</title>
<polygon fill="#ffffb3" stroke="#000000" points="1504.7437,-122 1383.2563,-122 1383.2563,-86 1504.7437,-86 1504.7437,-122"/>
<text text-anchor="middle" x="1444" y="-99.8" font-family="Times,serif" font-size="14.00" fill="#000000">HeaderComponent</text>
</g>
<!-- HeaderComponent&#45;&gt;AppModule -->
<g id="edge9" class="edge">
<title>HeaderComponent&#45;&gt;AppModule</title>
<path fill="none" stroke="#000000" d="M1444,-122.1243C1444,-136.7832 1444,-155 1444,-155 1444,-155 1358.8489,-155 1358.8489,-155"/>
<polygon fill="#000000" stroke="#000000" points="1358.849,-151.5001 1348.8489,-155 1358.8489,-158.5001 1358.849,-151.5001"/>
</g>
<!-- HomeComponent -->
<g id="node10" class="node">
<title>HomeComponent</title>
<polygon fill="#ffffb3" stroke="#000000" points="1364.5451,-122 1249.4549,-122 1249.4549,-86 1364.5451,-86 1364.5451,-122"/>
<text text-anchor="middle" x="1307" y="-99.8" font-family="Times,serif" font-size="14.00" fill="#000000">HomeComponent</text>
</g>
<!-- HomeComponent&#45;&gt;AppModule -->
<g id="edge10" class="edge">
<title>HomeComponent&#45;&gt;AppModule</title>
<path fill="none" stroke="#000000" d="M1307,-122.1061C1307,-122.1061 1307,-140.991 1307,-140.991"/>
<polygon fill="#000000" stroke="#000000" points="1303.5001,-140.9909 1307,-150.991 1310.5001,-140.991 1303.5001,-140.9909"/>
</g>
<!-- JoinedClubsComponent -->
<g id="node11" class="node">
<title>JoinedClubsComponent</title>
<polygon fill="#ffffb3" stroke="#000000" points="1231.0547,-122 1080.9453,-122 1080.9453,-86 1231.0547,-86 1231.0547,-122"/>
<text text-anchor="middle" x="1156" y="-99.8" font-family="Times,serif" font-size="14.00" fill="#000000">JoinedClubsComponent</text>
</g>
<!-- JoinedClubsComponent&#45;&gt;AppModule -->
<g id="edge11" class="edge">
<title>JoinedClubsComponent&#45;&gt;AppModule</title>
<path fill="none" stroke="#000000" d="M1156,-122.1243C1156,-136.7832 1156,-155 1156,-155 1156,-155 1255.3389,-155 1255.3389,-155"/>
<polygon fill="#000000" stroke="#000000" points="1255.3389,-158.5001 1265.3389,-155 1255.3388,-151.5001 1255.3389,-158.5001"/>
</g>
<!-- ProfilePageComponent -->
<g id="node12" class="node">
<title>ProfilePageComponent</title>
<polygon fill="#ffffb3" stroke="#000000" points="1062.1442,-122 915.8558,-122 915.8558,-86 1062.1442,-86 1062.1442,-122"/>
<text text-anchor="middle" x="989" y="-99.8" font-family="Times,serif" font-size="14.00" fill="#000000">ProfilePageComponent</text>
</g>
<!-- ProfilePageComponent&#45;&gt;AppModule -->
<g id="edge12" class="edge">
<title>ProfilePageComponent&#45;&gt;AppModule</title>
<path fill="none" stroke="#000000" d="M989,-122.0091C989,-138.0494 989,-159 989,-159 989,-159 1255.1001,-159 1255.1001,-159"/>
<polygon fill="#000000" stroke="#000000" points="1255.1001,-162.5001 1265.1001,-159 1255.1,-155.5001 1255.1001,-162.5001"/>
</g>
<!-- AppComponent  -->
<g id="node19" class="node">
<title>AppComponent </title>
<polygon fill="#80b1d3" stroke="#000000" points="1361.439,-252 1252.561,-252 1252.561,-216 1361.439,-216 1361.439,-252"/>
<text text-anchor="middle" x="1307" y="-229.8" font-family="Times,serif" font-size="14.00" fill="#000000">AppComponent </text>
</g>
<!-- AppModule&#45;&gt;AppComponent  -->
<g id="edge18" class="edge">
<title>AppModule&#45;&gt;AppComponent </title>
<path fill="none" stroke="#000000" stroke-dasharray="1,5" d="M1307,-187.1061C1307,-187.1061 1307,-205.991 1307,-205.991"/>
<polygon fill="#000000" stroke="#000000" points="1303.5001,-205.9909 1307,-215.991 1310.5001,-205.991 1303.5001,-205.9909"/>
</g>
<!-- AdminModule -->
<g id="node14" class="node">
<title>AdminModule</title>
<polygon fill="#8dd3c7" stroke="#000000" points="892.4386,-122 889.4386,-126 868.4386,-126 865.4386,-122 793.5614,-122 793.5614,-86 892.4386,-86 892.4386,-122"/>
<text text-anchor="middle" x="843" y="-99.8" font-family="Times,serif" font-size="14.00" fill="#000000">AdminModule</text>
</g>
<!-- AdminModule&#45;&gt;AppModule -->
<g id="edge13" class="edge">
<title>AdminModule&#45;&gt;AppModule</title>
<path fill="none" stroke="#000000" d="M843,-122.0336C843,-139.0597 843,-162 843,-162 843,-162 1255.0047,-162 1255.0047,-162"/>
<polygon fill="#000000" stroke="#000000" points="1255.0048,-165.5001 1265.0047,-162 1255.0047,-158.5001 1255.0048,-165.5001"/>
</g>
<!-- AppRoutingModule -->
<g id="node15" class="node">
<title>AppRoutingModule</title>
<polygon fill="#8dd3c7" stroke="#000000" points="775.2744,-122 772.2744,-126 751.2744,-126 748.2744,-122 646.7256,-122 646.7256,-86 775.2744,-86 775.2744,-122"/>
<text text-anchor="middle" x="711" y="-99.8" font-family="Times,serif" font-size="14.00" fill="#000000">AppRoutingModule</text>
</g>
<!-- AppRoutingModule&#45;&gt;AppModule -->
<g id="edge14" class="edge">
<title>AppRoutingModule&#45;&gt;AppModule</title>
<path fill="none" stroke="#000000" d="M711,-122.2667C711,-140.5552 711,-166 711,-166 711,-166 1255.0904,-166 1255.0904,-166"/>
<polygon fill="#000000" stroke="#000000" points="1255.0905,-169.5001 1265.0904,-166 1255.0904,-162.5001 1255.0905,-169.5001"/>
</g>
<!-- AuthModule -->
<g id="node16" class="node">
<title>AuthModule</title>
<polygon fill="#8dd3c7" stroke="#000000" points="628.5482,-122 625.5482,-126 604.5482,-126 601.5482,-122 541.4518,-122 541.4518,-86 628.5482,-86 628.5482,-122"/>
<text text-anchor="middle" x="585" y="-99.8" font-family="Times,serif" font-size="14.00" fill="#000000">AuthModule</text>
</g>
<!-- AuthModule&#45;&gt;AppModule -->
<g id="edge15" class="edge">
<title>AuthModule&#45;&gt;AppModule</title>
<path fill="none" stroke="#000000" d="M585,-122.1061C585,-141.3391 585,-169 585,-169 585,-169 1255.3256,-169 1255.3256,-169"/>
<polygon fill="#000000" stroke="#000000" points="1255.3256,-172.5001 1265.3256,-169 1255.3255,-165.5001 1255.3256,-172.5001"/>
</g>
<!-- MaterialModule -->
<g id="node17" class="node">
<title>MaterialModule</title>
<polygon fill="#8dd3c7" stroke="#000000" points="523.4706,-122 520.4706,-126 499.4706,-126 496.4706,-122 416.5294,-122 416.5294,-86 523.4706,-86 523.4706,-122"/>
<text text-anchor="middle" x="470" y="-99.8" font-family="Times,serif" font-size="14.00" fill="#000000">MaterialModule</text>
</g>
<!-- MaterialModule&#45;&gt;AppModule -->
<g id="edge16" class="edge">
<title>MaterialModule&#45;&gt;AppModule</title>
<path fill="none" stroke="#000000" d="M470,-122.1289C470,-142.5724 470,-173 470,-173 470,-173 1255.2067,-173 1255.2067,-173"/>
<polygon fill="#000000" stroke="#000000" points="1255.2067,-176.5001 1265.2067,-173 1255.2066,-169.5001 1255.2067,-176.5001"/>
</g>
<!-- SharedModule -->
<g id="node18" class="node">
<title>SharedModule</title>
<polygon fill="#8dd3c7" stroke="#000000" points="398.4231,-122 395.4231,-126 374.4231,-126 371.4231,-122 299.5769,-122 299.5769,-86 398.4231,-86 398.4231,-122"/>
<text text-anchor="middle" x="349" y="-99.8" font-family="Times,serif" font-size="14.00" fill="#000000">SharedModule</text>
</g>
<!-- SharedModule&#45;&gt;AppModule -->
<g id="edge17" class="edge">
<title>SharedModule&#45;&gt;AppModule</title>
<path fill="none" stroke="#000000" d="M349,-122.0449C349,-143.6623 349,-177 349,-177 349,-177 1255.2199,-177 1255.2199,-177"/>
<polygon fill="#000000" stroke="#000000" points="1255.22,-180.5001 1265.2199,-177 1255.2199,-173.5001 1255.22,-180.5001"/>
</g>
<!-- ClubService -->
<g id="node20" class="node">
<title>ClubService</title>
<ellipse fill="#fdb462" stroke="#000000" cx="217" cy="-104" rx="58.5463" ry="18"/>
<text text-anchor="middle" x="217" y="-99.8" font-family="Times,serif" font-size="14.00" fill="#000000">ClubService</text>
</g>
<!-- ClubService&#45;&gt;AppModule -->
<g id="edge19" class="edge">
<title>ClubService&#45;&gt;AppModule</title>
<path fill="none" stroke="#000000" d="M217,-122.0109C217,-144.4852 217,-180 217,-180 217,-180 1255.2707,-180 1255.2707,-180"/>
<polygon fill="#000000" stroke="#000000" points="1255.2708,-183.5001 1265.2707,-180 1255.2707,-176.5001 1255.2708,-183.5001"/>
</g>
<!-- UserService -->
<g id="node21" class="node">
<title>UserService</title>
<ellipse fill="#fdb462" stroke="#000000" cx="82" cy="-104" rx="58.4415" ry="18"/>
<text text-anchor="middle" x="82" y="-99.8" font-family="Times,serif" font-size="14.00" fill="#000000">UserService</text>
</g>
<!-- UserService&#45;&gt;AppModule -->
<g id="edge20" class="edge">
<title>UserService&#45;&gt;AppModule</title>
<path fill="none" stroke="#000000" d="M82,-122.1532C82,-145.7566 82,-184 82,-184 82,-184 1255.1871,-184 1255.1871,-184"/>
<polygon fill="#000000" stroke="#000000" points="1255.1871,-187.5001 1265.1871,-184 1255.1871,-180.5001 1255.1871,-187.5001"/>
</g>
</g>
</svg>
