<?xml version="1.0" encoding="UTF-8" standalone="no"?>
<!DOCTYPE svg PUBLIC "-//W3C//DTD SVG 1.1//EN"
 "http://www.w3.org/Graphics/SVG/1.1/DTD/svg11.dtd">
<!-- Generated by graphviz version 2.40.1 (20161225.0304)
 -->
<!-- Title: dependencies Pages: 1 -->
<svg width="3359pt" height="352pt"
 viewBox="0.00 0.00 3359.00 352.00" xmlns="http://www.w3.org/2000/svg" xmlns:xlink="http://www.w3.org/1999/xlink">
<g id="graph0" class="graph" transform="scale(1 1) rotate(0) translate(4 348)">
<title>dependencies</title>
<polygon fill="#ffffff" stroke="transparent" points="-4,4 -4,-348 3355,-348 3355,4 -4,4"/>
<text text-anchor="start" x="1654.5091" y="-42.4" font-family="sans-serif" font-weight="bold" font-size="14.00" fill="#000000">Legend</text>
<polygon fill="#ffffb3" stroke="transparent" points="1441.5,-10 1441.5,-30 1461.5,-30 1461.5,-10 1441.5,-10"/>
<text text-anchor="start" x="1465.129" y="-15.4" font-family="sans-serif" font-size="14.00" fill="#000000"> &#160;Declarations</text>
<polygon fill="#8dd3c7" stroke="transparent" points="1554.5,-10 1554.5,-30 1574.5,-30 1574.5,-10 1554.5,-10"/>
<text text-anchor="start" x="1578.2251" y="-15.4" font-family="sans-serif" font-size="14.00" fill="#000000"> &#160;Module</text>
<polygon fill="#80b1d3" stroke="transparent" points="1640.5,-10 1640.5,-30 1660.5,-30 1660.5,-10 1640.5,-10"/>
<text text-anchor="start" x="1664.2812" y="-15.4" font-family="sans-serif" font-size="14.00" fill="#000000"> &#160;Bootstrap</text>
<polygon fill="#fdb462" stroke="transparent" points="1737.5,-10 1737.5,-30 1757.5,-30 1757.5,-10 1737.5,-10"/>
<text text-anchor="start" x="1761.1732" y="-15.4" font-family="sans-serif" font-size="14.00" fill="#000000"> &#160;Providers</text>
<polygon fill="#fb8072" stroke="transparent" points="1833.5,-10 1833.5,-30 1853.5,-30 1853.5,-10 1833.5,-10"/>
<text text-anchor="start" x="1857.2258" y="-15.4" font-family="sans-serif" font-size="14.00" fill="#000000"> &#160;Exports</text>
<g id="clust1" class="cluster">
<title>cluster_AppModule</title>
<polygon fill="none" stroke="#000000" stroke-dasharray="1,5" points="8,-70 8,-336 2596,-336 2596,-70 8,-70"/>
</g>
<g id="clust2" class="cluster">
<title>cluster_AppModule_declarations</title>
<polygon fill="none" stroke="#000000" points="686,-146 686,-198 2588,-198 2588,-146 686,-146"/>
</g>
<g id="clust15" class="cluster">
<title>cluster_AppModule_imports</title>
<polygon fill="none" stroke="#000000" points="292,-78 292,-198 678,-198 678,-78 292,-78"/>
</g>
<g id="clust17" class="cluster">
<title>cluster_AppModule_bootstrap</title>
<polygon fill="none" stroke="#000000" points="1134,-276 1134,-328 1258,-328 1258,-276 1134,-276"/>
</g>
<g id="clust18" class="cluster">
<title>cluster_AppModule_providers</title>
<polygon fill="none" stroke="#000000" points="16,-146 16,-198 284,-198 284,-146 16,-146"/>
</g>
<g id="clust25" class="cluster">
<title>cluster_AuthModule</title>
<polygon fill="none" stroke="#000000" stroke-dasharray="1,5" points="2604,-70 2604,-138 3343,-138 3343,-70 2604,-70"/>
</g>
<g id="clust26" class="cluster">
<title>cluster_AuthModule_declarations</title>
<polygon fill="none" stroke="#000000" points="3059,-78 3059,-130 3335,-130 3335,-78 3059,-78"/>
</g>
<g id="clust29" class="cluster">
<title>cluster_AuthModule_imports</title>
<polygon fill="none" stroke="#000000" points="2903,-78 2903,-130 3051,-130 3051,-78 2903,-78"/>
</g>
<g id="clust32" class="cluster">
<title>cluster_AuthModule_providers</title>
<polygon fill="none" stroke="#000000" points="2612,-78 2612,-130 2895,-130 2895,-78 2612,-78"/>
</g>
<!-- AddClubComponent -->
<g id="node1" class="node">
<title>AddClubComponent</title>
<polygon fill="#ffffb3" stroke="#000000" points="1656.1666,-190 1523.8334,-190 1523.8334,-154 1656.1666,-154 1656.1666,-190"/>
<text text-anchor="middle" x="1590" y="-167.8" font-family="Times,serif" font-size="14.00" fill="#000000">AddClubComponent</text>
</g>
<!-- AppModule -->
<g id="node13" class="node">
<title>AppModule</title>
<polygon fill="#8dd3c7" stroke="#000000" points="1237.6571,-255 1234.6571,-259 1213.6571,-259 1210.6571,-255 1154.3429,-255 1154.3429,-219 1237.6571,-219 1237.6571,-255"/>
<text text-anchor="middle" x="1196" y="-232.8" font-family="Times,serif" font-size="14.00" fill="#000000">AppModule</text>
</g>
<!-- AddClubComponent&#45;&gt;AppModule -->
<g id="edge1" class="edge">
<title>AddClubComponent&#45;&gt;AppModule</title>
<path fill="none" stroke="#000000" d="M1590,-190.0091C1590,-206.0494 1590,-227 1590,-227 1590,-227 1247.7919,-227 1247.7919,-227"/>
<polygon fill="#000000" stroke="#000000" points="1247.7919,-223.5001 1237.7919,-227 1247.7919,-230.5001 1247.7919,-223.5001"/>
</g>
<!-- AppComponent -->
<g id="node2" class="node">
<title>AppComponent</title>
<polygon fill="#ffffb3" stroke="#000000" points="1505.9399,-190 1400.0601,-190 1400.0601,-154 1505.9399,-154 1505.9399,-190"/>
<text text-anchor="middle" x="1453" y="-167.8" font-family="Times,serif" font-size="14.00" fill="#000000">AppComponent</text>
</g>
<!-- AppComponent&#45;&gt;AppModule -->
<g id="edge2" class="edge">
<title>AppComponent&#45;&gt;AppModule</title>
<path fill="none" stroke="#000000" d="M1453,-190.1243C1453,-204.7832 1453,-223 1453,-223 1453,-223 1247.8635,-223 1247.8635,-223"/>
<polygon fill="#000000" stroke="#000000" points="1247.8635,-219.5001 1237.8635,-223 1247.8634,-226.5001 1247.8635,-219.5001"/>
</g>
<!-- ChangeProfilePageComponent -->
<g id="node3" class="node">
<title>ChangeProfilePageComponent</title>
<polygon fill="#ffffb3" stroke="#000000" points="1382.91,-190 1193.09,-190 1193.09,-154 1382.91,-154 1382.91,-190"/>
<text text-anchor="middle" x="1288" y="-167.8" font-family="Times,serif" font-size="14.00" fill="#000000">ChangeProfilePageComponent</text>
</g>
<!-- ChangeProfilePageComponent&#45;&gt;AppModule -->
<g id="edge3" class="edge">
<title>ChangeProfilePageComponent&#45;&gt;AppModule</title>
<path fill="none" stroke="#000000" d="M1215.5617,-190.1061C1215.5617,-190.1061 1215.5617,-208.991 1215.5617,-208.991"/>
<polygon fill="#000000" stroke="#000000" points="1212.0618,-208.9909 1215.5617,-218.991 1219.0618,-208.991 1212.0618,-208.9909"/>
</g>
<!-- ChatLoginComponent -->
<g id="node4" class="node">
<title>ChatLoginComponent</title>
<polygon fill="#ffffb3" stroke="#000000" points="1175.7176,-190 1034.2824,-190 1034.2824,-154 1175.7176,-154 1175.7176,-190"/>
<text text-anchor="middle" x="1105" y="-167.8" font-family="Times,serif" font-size="14.00" fill="#000000">ChatLoginComponent</text>
</g>
<!-- ChatLoginComponent&#45;&gt;AppModule -->
<g id="edge4" class="edge">
<title>ChatLoginComponent&#45;&gt;AppModule</title>
<path fill="none" stroke="#000000" d="M1164.8903,-190.1061C1164.8903,-190.1061 1164.8903,-208.991 1164.8903,-208.991"/>
<polygon fill="#000000" stroke="#000000" points="1161.3903,-208.9909 1164.8903,-218.991 1168.3903,-208.991 1161.3903,-208.9909"/>
</g>
<!-- CreateClubComponent -->
<g id="node5" class="node">
<title>CreateClubComponent</title>
<polygon fill="#ffffb3" stroke="#000000" points="1016.5912,-190 871.4088,-190 871.4088,-154 1016.5912,-154 1016.5912,-190"/>
<text text-anchor="middle" x="944" y="-167.8" font-family="Times,serif" font-size="14.00" fill="#000000">CreateClubComponent</text>
</g>
<!-- CreateClubComponent&#45;&gt;AppModule -->
<g id="edge5" class="edge">
<title>CreateClubComponent&#45;&gt;AppModule</title>
<path fill="none" stroke="#000000" d="M944,-190.1871C944,-205.1824 944,-224 944,-224 944,-224 1144.1044,-224 1144.1044,-224"/>
<polygon fill="#000000" stroke="#000000" points="1144.1045,-227.5001 1154.1044,-224 1144.1044,-220.5001 1144.1045,-227.5001"/>
</g>
<!-- DetailedViewComponent -->
<g id="node6" class="node">
<title>DetailedViewComponent</title>
<polygon fill="#ffffb3" stroke="#000000" points="853.573,-190 694.427,-190 694.427,-154 853.573,-154 853.573,-190"/>
<text text-anchor="middle" x="774" y="-167.8" font-family="Times,serif" font-size="14.00" fill="#000000">DetailedViewComponent</text>
</g>
<!-- DetailedViewComponent&#45;&gt;AppModule -->
<g id="edge6" class="edge">
<title>DetailedViewComponent&#45;&gt;AppModule</title>
<path fill="none" stroke="#000000" d="M774,-190.027C774,-206.3976 774,-228 774,-228 774,-228 1143.9942,-228 1143.9942,-228"/>
<polygon fill="#000000" stroke="#000000" points="1143.9943,-231.5001 1153.9942,-228 1143.9942,-224.5001 1143.9943,-231.5001"/>
</g>
<!-- EditClubComponent -->
<g id="node7" class="node">
<title>EditClubComponent</title>
<polygon fill="#ffffb3" stroke="#000000" points="2579.8934,-190 2448.1066,-190 2448.1066,-154 2579.8934,-154 2579.8934,-190"/>
<text text-anchor="middle" x="2514" y="-167.8" font-family="Times,serif" font-size="14.00" fill="#000000">EditClubComponent</text>
</g>
<!-- EditClubComponent&#45;&gt;AppModule -->
<g id="edge7" class="edge">
<title>EditClubComponent&#45;&gt;AppModule</title>
<path fill="none" stroke="#000000" d="M2514,-190.3228C2514,-213.6602 2514,-251 2514,-251 2514,-251 1247.99,-251 1247.99,-251"/>
<polygon fill="#000000" stroke="#000000" points="1247.99,-247.5001 1237.99,-251 1247.9899,-254.5001 1247.99,-247.5001"/>
</g>
<!-- GroupViewComponent -->
<g id="node8" class="node">
<title>GroupViewComponent</title>
<polygon fill="#ffffb3" stroke="#000000" points="2429.9186,-190 2282.0814,-190 2282.0814,-154 2429.9186,-154 2429.9186,-190"/>
<text text-anchor="middle" x="2356" y="-167.8" font-family="Times,serif" font-size="14.00" fill="#000000">GroupViewComponent</text>
</g>
<!-- GroupViewComponent&#45;&gt;AppModule -->
<g id="edge8" class="edge">
<title>GroupViewComponent&#45;&gt;AppModule</title>
<path fill="none" stroke="#000000" d="M2356,-190.1554C2356,-212.3519 2356,-247 2356,-247 2356,-247 1247.9703,-247 1247.9703,-247"/>
<polygon fill="#000000" stroke="#000000" points="1247.9704,-243.5001 1237.9703,-247 1247.9703,-250.5001 1247.9704,-243.5001"/>
</g>
<!-- HeaderComponent -->
<g id="node9" class="node">
<title>HeaderComponent</title>
<polygon fill="#ffffb3" stroke="#000000" points="2263.7437,-190 2142.2563,-190 2142.2563,-154 2263.7437,-154 2263.7437,-190"/>
<text text-anchor="middle" x="2203" y="-167.8" font-family="Times,serif" font-size="14.00" fill="#000000">HeaderComponent</text>
</g>
<!-- HeaderComponent&#45;&gt;AppModule -->
<g id="edge9" class="edge">
<title>HeaderComponent&#45;&gt;AppModule</title>
<path fill="none" stroke="#000000" d="M2203,-190.2843C2203,-211.3211 2203,-243 2203,-243 2203,-243 1247.6697,-243 1247.6697,-243"/>
<polygon fill="#000000" stroke="#000000" points="1247.6697,-239.5001 1237.6697,-243 1247.6696,-246.5001 1247.6697,-239.5001"/>
</g>
<!-- HomeComponent -->
<g id="node10" class="node">
<title>HomeComponent</title>
<polygon fill="#ffffb3" stroke="#000000" points="2123.5451,-190 2008.4549,-190 2008.4549,-154 2123.5451,-154 2123.5451,-190"/>
<text text-anchor="middle" x="2066" y="-167.8" font-family="Times,serif" font-size="14.00" fill="#000000">HomeComponent</text>
</g>
<!-- HomeComponent&#45;&gt;AppModule -->
<g id="edge10" class="edge">
<title>HomeComponent&#45;&gt;AppModule</title>
<path fill="none" stroke="#000000" d="M2066,-190.308C2066,-210.1455 2066,-239 2066,-239 2066,-239 1247.6688,-239 1247.6688,-239"/>
<polygon fill="#000000" stroke="#000000" points="1247.6688,-235.5001 1237.6688,-239 1247.6688,-242.5001 1247.6688,-235.5001"/>
</g>
<!-- JoinedClubsComponent -->
<g id="node11" class="node">
<title>JoinedClubsComponent</title>
<polygon fill="#ffffb3" stroke="#000000" points="1990.0547,-190 1839.9453,-190 1839.9453,-154 1990.0547,-154 1990.0547,-190"/>
<text text-anchor="middle" x="1915" y="-167.8" font-family="Times,serif" font-size="14.00" fill="#000000">JoinedClubsComponent</text>
</g>
<!-- JoinedClubsComponent&#45;&gt;AppModule -->
<g id="edge11" class="edge">
<title>JoinedClubsComponent&#45;&gt;AppModule</title>
<path fill="none" stroke="#000000" d="M1915,-190.2222C1915,-208.8285 1915,-235 1915,-235 1915,-235 1247.7643,-235 1247.7643,-235"/>
<polygon fill="#000000" stroke="#000000" points="1247.7643,-231.5001 1237.7643,-235 1247.7642,-238.5001 1247.7643,-231.5001"/>
</g>
<!-- ProfilePageComponent -->
<g id="node12" class="node">
<title>ProfilePageComponent</title>
<polygon fill="#ffffb3" stroke="#000000" points="1821.1442,-190 1674.8558,-190 1674.8558,-154 1821.1442,-154 1821.1442,-190"/>
<text text-anchor="middle" x="1748" y="-167.8" font-family="Times,serif" font-size="14.00" fill="#000000">ProfilePageComponent</text>
</g>
<!-- ProfilePageComponent&#45;&gt;AppModule -->
<g id="edge12" class="edge">
<title>ProfilePageComponent&#45;&gt;AppModule</title>
<path fill="none" stroke="#000000" d="M1748,-190.0225C1748,-207.3734 1748,-231 1748,-231 1748,-231 1247.9428,-231 1247.9428,-231"/>
<polygon fill="#000000" stroke="#000000" points="1247.9428,-227.5001 1237.9428,-231 1247.9428,-234.5001 1247.9428,-227.5001"/>
</g>
<!-- AppComponent  -->
<g id="node18" class="node">
<title>AppComponent </title>
<polygon fill="#80b1d3" stroke="#000000" points="1250.439,-320 1141.561,-320 1141.561,-284 1250.439,-284 1250.439,-320"/>
<text text-anchor="middle" x="1196" y="-297.8" font-family="Times,serif" font-size="14.00" fill="#000000">AppComponent </text>
</g>
<!-- AppModule&#45;&gt;AppComponent  -->
<g id="edge17" class="edge">
<title>AppModule&#45;&gt;AppComponent </title>
<path fill="none" stroke="#000000" stroke-dasharray="1,5" d="M1196,-255.1061C1196,-255.1061 1196,-273.991 1196,-273.991"/>
<polygon fill="#000000" stroke="#000000" points="1192.5001,-273.9909 1196,-283.991 1199.5001,-273.991 1192.5001,-273.9909"/>
</g>
<!-- AppRoutingModule -->
<g id="node14" class="node">
<title>AppRoutingModule</title>
<polygon fill="#8dd3c7" stroke="#000000" points="428.2744,-122 425.2744,-126 404.2744,-126 401.2744,-122 299.7256,-122 299.7256,-86 428.2744,-86 428.2744,-122"/>
<text text-anchor="middle" x="364" y="-99.8" font-family="Times,serif" font-size="14.00" fill="#000000">AppRoutingModule</text>
</g>
<!-- AppRoutingModule&#45;&gt;AppModule -->
<g id="edge13" class="edge">
<title>AppRoutingModule&#45;&gt;AppModule</title>
<path fill="none" stroke="#000000" d="M364,-122.0411C364,-159.4476 364,-242 364,-242 364,-242 1144.1708,-242 1144.1708,-242"/>
<polygon fill="#000000" stroke="#000000" points="1144.1708,-245.5001 1154.1708,-242 1144.1708,-238.5001 1144.1708,-245.5001"/>
</g>
<!-- AuthModule -->
<g id="node15" class="node">
<title>AuthModule</title>
<polygon fill="#8dd3c7" stroke="#000000" points="669.5482,-190 666.5482,-194 645.5482,-194 642.5482,-190 582.4518,-190 582.4518,-154 669.5482,-154 669.5482,-190"/>
<text text-anchor="middle" x="626" y="-167.8" font-family="Times,serif" font-size="14.00" fill="#000000">AuthModule</text>
</g>
<!-- AuthModule&#45;&gt;AppModule -->
<g id="edge14" class="edge">
<title>AuthModule&#45;&gt;AppModule</title>
<path fill="none" stroke="#000000" d="M626,-190.302C626,-208.2699 626,-233 626,-233 626,-233 1144.0865,-233 1144.0865,-233"/>
<polygon fill="#000000" stroke="#000000" points="1144.0866,-236.5001 1154.0865,-233 1144.0865,-229.5001 1144.0866,-236.5001"/>
</g>
<!-- MaterialModule -->
<g id="node16" class="node">
<title>MaterialModule</title>
<polygon fill="#8dd3c7" stroke="#000000" points="553.4706,-122 550.4706,-126 529.4706,-126 526.4706,-122 446.5294,-122 446.5294,-86 553.4706,-86 553.4706,-122"/>
<text text-anchor="middle" x="500" y="-99.8" font-family="Times,serif" font-size="14.00" fill="#000000">MaterialModule</text>
</g>
<!-- MaterialModule&#45;&gt;AppModule -->
<g id="edge15" class="edge">
<title>MaterialModule&#45;&gt;AppModule</title>
<path fill="none" stroke="#000000" d="M500,-122.2142C500,-158.6396 500,-237 500,-237 500,-237 1144.2883,-237 1144.2883,-237"/>
<polygon fill="#000000" stroke="#000000" points="1144.2883,-240.5001 1154.2883,-237 1144.2882,-233.5001 1144.2883,-240.5001"/>
</g>
<!-- SharedModule -->
<g id="node17" class="node">
<title>SharedModule</title>
<polygon fill="#8dd3c7" stroke="#000000" points="670.4231,-122 667.4231,-126 646.4231,-126 643.4231,-122 571.5769,-122 571.5769,-86 670.4231,-86 670.4231,-122"/>
<text text-anchor="middle" x="621" y="-99.8" font-family="Times,serif" font-size="14.00" fill="#000000">SharedModule</text>
</g>
<!-- SharedModule&#45;&gt;AppModule -->
<g id="edge16" class="edge">
<title>SharedModule&#45;&gt;AppModule</title>
<path fill="none" stroke="#000000" d="M670.5088,-110C808.0014,-110 1184.452,-110 1184.452,-110 1184.452,-110 1184.452,-208.804 1184.452,-208.804"/>
<polygon fill="#000000" stroke="#000000" points="1180.952,-208.804 1184.452,-218.804 1187.952,-208.804 1180.952,-208.804"/>
</g>
<!-- SharedModule&#45;&gt;AuthModule -->
<g id="edge23" class="edge">
<title>SharedModule&#45;&gt;AuthModule</title>
<path fill="none" stroke="#000000" d="M596.8177,-122.2228C596.8177,-122.2228 596.8177,-143.7269 596.8177,-143.7269"/>
<polygon fill="#000000" stroke="#000000" points="593.3178,-143.7269 596.8177,-153.7269 600.3178,-143.727 593.3178,-143.7269"/>
</g>
<!-- ClubService -->
<g id="node19" class="node">
<title>ClubService</title>
<ellipse fill="#fdb462" stroke="#000000" cx="217" cy="-172" rx="58.5463" ry="18"/>
<text text-anchor="middle" x="217" y="-167.8" font-family="Times,serif" font-size="14.00" fill="#000000">ClubService</text>
</g>
<!-- ClubService&#45;&gt;AppModule -->
<g id="edge18" class="edge">
<title>ClubService&#45;&gt;AppModule</title>
<path fill="none" stroke="#000000" d="M217,-190.2921C217,-212.2057 217,-246 217,-246 217,-246 1144.2468,-246 1144.2468,-246"/>
<polygon fill="#000000" stroke="#000000" points="1144.2468,-249.5001 1154.2468,-246 1144.2467,-242.5001 1144.2468,-249.5001"/>
</g>
<!-- UserService -->
<g id="node20" class="node">
<title>UserService</title>
<ellipse fill="#fdb462" stroke="#000000" cx="82" cy="-172" rx="58.4415" ry="18"/>
<text text-anchor="middle" x="82" y="-167.8" font-family="Times,serif" font-size="14.00" fill="#000000">UserService</text>
</g>
<!-- UserService&#45;&gt;AppModule -->
<g id="edge19" class="edge">
<title>UserService&#45;&gt;AppModule</title>
<path fill="none" stroke="#000000" d="M82,-190.3228C82,-213.6602 82,-251 82,-251 82,-251 1144.0272,-251 1144.0272,-251"/>
<polygon fill="#000000" stroke="#000000" points="1144.0273,-254.5001 1154.0272,-251 1144.0272,-247.5001 1144.0273,-254.5001"/>
</g>
<!-- LoginComponent -->
<g id="node21" class="node">
<title>LoginComponent</title>
<polygon fill="#ffffb3" stroke="#000000" points="3327.2758,-122 3212.7242,-122 3212.7242,-86 3327.2758,-86 3327.2758,-122"/>
<text text-anchor="middle" x="3270" y="-99.8" font-family="Times,serif" font-size="14.00" fill="#000000">LoginComponent</text>
</g>
<!-- LoginComponent&#45;&gt;AuthModule -->
<g id="edge20" class="edge">
<title>LoginComponent&#45;&gt;AuthModule</title>
<path fill="none" stroke="#000000" d="M3270,-122.1505C3270,-134.2708 3270,-148 3270,-148 3270,-148 655.1823,-148 655.1823,-148 655.1823,-148 655.1823,-148.581 655.1823,-148.581"/>
<polygon fill="#000000" stroke="#000000" points="651.6825,-143.8097 655.1823,-153.8097 658.6825,-143.8098 651.6825,-143.8097"/>
</g>
<!-- RegisterComponent -->
<g id="node22" class="node">
<title>RegisterComponent</title>
<polygon fill="#ffffb3" stroke="#000000" points="3194.9846,-122 3067.0154,-122 3067.0154,-86 3194.9846,-86 3194.9846,-122"/>
<text text-anchor="middle" x="3131" y="-99.8" font-family="Times,serif" font-size="14.00" fill="#000000">RegisterComponent</text>
</g>
<!-- RegisterComponent&#45;&gt;AuthModule -->
<g id="edge21" class="edge">
<title>RegisterComponent&#45;&gt;AuthModule</title>
<path fill="none" stroke="#000000" d="M3131,-122.1097C3131,-131.897 3131,-142 3131,-142 3131,-142 640.5912,-142 640.5912,-142 640.5912,-142 640.5912,-143.8568 640.5912,-143.8568"/>
<polygon fill="#000000" stroke="#000000" points="637.0913,-143.8568 640.5912,-153.8568 644.0913,-143.8568 637.0913,-143.8568"/>
</g>
<!-- AuthRoutingModule -->
<g id="node23" class="node">
<title>AuthRoutingModule</title>
<polygon fill="#8dd3c7" stroke="#000000" points="3043.1652,-122 3040.1652,-126 3019.1652,-126 3016.1652,-122 2910.8348,-122 2910.8348,-86 3043.1652,-86 3043.1652,-122"/>
<text text-anchor="middle" x="2977" y="-99.8" font-family="Times,serif" font-size="14.00" fill="#000000">AuthRoutingModule</text>
</g>
<!-- AuthRoutingModule&#45;&gt;AuthModule -->
<g id="edge22" class="edge">
<title>AuthRoutingModule&#45;&gt;AuthModule</title>
<path fill="none" stroke="#000000" d="M2977,-122.0328C2977,-128.8526 2977,-135 2977,-135 2977,-135 626,-135 626,-135 626,-135 626,-143.9336 626,-143.9336"/>
<polygon fill="#000000" stroke="#000000" points="622.5001,-143.9335 626,-153.9336 629.5001,-143.9336 622.5001,-143.9335"/>
</g>
<!-- AuthService -->
<g id="node24" class="node">
<title>AuthService</title>
<ellipse fill="#fdb462" stroke="#000000" cx="2828" cy="-104" rx="59.1083" ry="18"/>
<text text-anchor="middle" x="2828" y="-99.8" font-family="Times,serif" font-size="14.00" fill="#000000">AuthService</text>
</g>
<!-- AuthService&#45;&gt;AuthModule -->
<g id="edge24" class="edge">
<title>AuthService&#45;&gt;AuthModule</title>
<path fill="none" stroke="#000000" d="M2828,-122.1686C2828,-126.0459 2828,-129 2828,-129 2828,-129 611.4088,-129 611.4088,-129 611.4088,-129 611.4088,-143.5146 611.4088,-143.5146"/>
<polygon fill="#000000" stroke="#000000" points="607.9089,-143.5145 611.4088,-153.5146 614.9089,-143.5146 607.9089,-143.5145"/>
</g>
<!-- TokenStorage -->
<g id="node25" class="node">
<title>TokenStorage</title>
<ellipse fill="#fdb462" stroke="#000000" cx="2685" cy="-104" rx="65.4111" ry="18"/>
<text text-anchor="middle" x="2685" y="-99.8" font-family="Times,serif" font-size="14.00" fill="#000000">TokenStorage</text>
</g>
<!-- TokenStorage&#45;&gt;AuthModule -->
<g id="edge25" class="edge">
<title>TokenStorage&#45;&gt;AuthModule</title>
<path fill="none" stroke="#000000" d="M2623.4206,-98C2286.5902,-98 682.3373,-98 682.3373,-98 682.3373,-98 682.3373,-172 682.3373,-172 682.3373,-172 679.5535,-172 679.5535,-172"/>
<polygon fill="#000000" stroke="#000000" points="679.5535,-168.5001 669.5535,-172 679.5535,-175.5001 679.5535,-168.5001"/>
</g>
</g>
</svg>
