<?xml version="1.0" encoding="UTF-8" standalone="no"?>
<!DOCTYPE svg PUBLIC "-//W3C//DTD SVG 1.1//EN"
 "http://www.w3.org/Graphics/SVG/1.1/DTD/svg11.dtd">
<!-- Generated by graphviz version 2.40.1 (20161225.0304)
 -->
<!-- Title: dependencies Pages: 1 -->
<svg width="3687pt" height="352pt"
 viewBox="0.00 0.00 3687.00 352.00" xmlns="http://www.w3.org/2000/svg" xmlns:xlink="http://www.w3.org/1999/xlink">
<g id="graph0" class="graph" transform="scale(1 1) rotate(0) translate(4 348)">
<title>dependencies</title>
<polygon fill="#ffffff" stroke="transparent" points="-4,4 -4,-348 3683,-348 3683,4 -4,4"/>
<text text-anchor="start" x="1818.5091" y="-42.4" font-family="sans-serif" font-weight="bold" font-size="14.00" fill="#000000">Legend</text>
<polygon fill="#ffffb3" stroke="transparent" points="1605.5,-10 1605.5,-30 1625.5,-30 1625.5,-10 1605.5,-10"/>
<text text-anchor="start" x="1629.129" y="-15.4" font-family="sans-serif" font-size="14.00" fill="#000000"> &#160;Declarations</text>
<polygon fill="#8dd3c7" stroke="transparent" points="1718.5,-10 1718.5,-30 1738.5,-30 1738.5,-10 1718.5,-10"/>
<text text-anchor="start" x="1742.2251" y="-15.4" font-family="sans-serif" font-size="14.00" fill="#000000"> &#160;Module</text>
<polygon fill="#80b1d3" stroke="transparent" points="1804.5,-10 1804.5,-30 1824.5,-30 1824.5,-10 1804.5,-10"/>
<text text-anchor="start" x="1828.2812" y="-15.4" font-family="sans-serif" font-size="14.00" fill="#000000"> &#160;Bootstrap</text>
<polygon fill="#fdb462" stroke="transparent" points="1901.5,-10 1901.5,-30 1921.5,-30 1921.5,-10 1901.5,-10"/>
<text text-anchor="start" x="1925.1732" y="-15.4" font-family="sans-serif" font-size="14.00" fill="#000000"> &#160;Providers</text>
<polygon fill="#fb8072" stroke="transparent" points="1997.5,-10 1997.5,-30 2017.5,-30 2017.5,-10 1997.5,-10"/>
<text text-anchor="start" x="2021.2258" y="-15.4" font-family="sans-serif" font-size="14.00" fill="#000000"> &#160;Exports</text>
<g id="clust1" class="cluster">
<title>cluster_AdminModule</title>
<polygon fill="none" stroke="#000000" stroke-dasharray="1,5" points="8,-70 8,-198 328,-198 328,-70 8,-70"/>
</g>
<g id="clust2" class="cluster">
<title>cluster_AdminModule_declarations</title>
<polygon fill="none" stroke="#000000" points="184,-78 184,-130 320,-130 320,-78 184,-78"/>
</g>
<g id="clust4" class="cluster">
<title>cluster_AdminModule_imports</title>
<polygon fill="none" stroke="#000000" points="16,-78 16,-130 176,-130 176,-78 16,-78"/>
</g>
<g id="clust14" class="cluster">
<title>cluster_AppModule</title>
<polygon fill="none" stroke="#000000" stroke-dasharray="1,5" points="336,-70 336,-336 2924,-336 2924,-70 336,-70"/>
</g>
<g id="clust15" class="cluster">
<title>cluster_AppModule_declarations</title>
<polygon fill="none" stroke="#000000" points="1014,-146 1014,-198 2916,-198 2916,-146 1014,-146"/>
</g>
<g id="clust28" class="cluster">
<title>cluster_AppModule_imports</title>
<polygon fill="none" stroke="#000000" points="620,-78 620,-198 1006,-198 1006,-78 620,-78"/>
</g>
<g id="clust30" class="cluster">
<title>cluster_AppModule_bootstrap</title>
<polygon fill="none" stroke="#000000" points="1377,-276 1377,-328 1501,-328 1501,-276 1377,-276"/>
</g>
<g id="clust31" class="cluster">
<title>cluster_AppModule_providers</title>
<polygon fill="none" stroke="#000000" points="344,-146 344,-198 612,-198 612,-146 344,-146"/>
</g>
<g id="clust38" class="cluster">
<title>cluster_AuthModule</title>
<polygon fill="none" stroke="#000000" stroke-dasharray="1,5" points="2932,-70 2932,-138 3671,-138 3671,-70 2932,-70"/>
</g>
<g id="clust39" class="cluster">
<title>cluster_AuthModule_declarations</title>
<polygon fill="none" stroke="#000000" points="3387,-78 3387,-130 3663,-130 3663,-78 3387,-78"/>
</g>
<g id="clust42" class="cluster">
<title>cluster_AuthModule_imports</title>
<polygon fill="none" stroke="#000000" points="3231,-78 3231,-130 3379,-130 3379,-78 3231,-78"/>
</g>
<g id="clust45" class="cluster">
<title>cluster_AuthModule_providers</title>
<polygon fill="none" stroke="#000000" points="2940,-78 2940,-130 3223,-130 3223,-78 2940,-78"/>
</g>
<!-- AdminComponent -->
<g id="node1" class="node">
<title>AdminComponent</title>
<polygon fill="#ffffb3" stroke="#000000" points="312.2204,-122 191.7796,-122 191.7796,-86 312.2204,-86 312.2204,-122"/>
<text text-anchor="middle" x="252" y="-99.8" font-family="Times,serif" font-size="14.00" fill="#000000">AdminComponent</text>
</g>
<!-- AdminModule -->
<g id="node2" class="node">
<title>AdminModule</title>
<polygon fill="#8dd3c7" stroke="#000000" points="301.4386,-190 298.4386,-194 277.4386,-194 274.4386,-190 202.5614,-190 202.5614,-154 301.4386,-154 301.4386,-190"/>
<text text-anchor="middle" x="252" y="-167.8" font-family="Times,serif" font-size="14.00" fill="#000000">AdminModule</text>
</g>
<!-- AdminComponent&#45;&gt;AdminModule -->
<g id="edge1" class="edge">
<title>AdminComponent&#45;&gt;AdminModule</title>
<path fill="none" stroke="#000000" d="M252,-122.2228C252,-122.2228 252,-143.7269 252,-143.7269"/>
<polygon fill="#000000" stroke="#000000" points="248.5001,-143.7269 252,-153.7269 255.5001,-143.727 248.5001,-143.7269"/>
</g>
<!-- AppModule -->
<g id="node16" class="node">
<title>AppModule</title>
<polygon fill="#8dd3c7" stroke="#000000" points="1480.6571,-255 1477.6571,-259 1456.6571,-259 1453.6571,-255 1397.3429,-255 1397.3429,-219 1480.6571,-219 1480.6571,-255"/>
<text text-anchor="middle" x="1439" y="-232.8" font-family="Times,serif" font-size="14.00" fill="#000000">AppModule</text>
</g>
<!-- AdminModule&#45;&gt;AppModule -->
<g id="edge15" class="edge">
<title>AdminModule&#45;&gt;AppModule</title>
<path fill="none" stroke="#000000" d="M252,-190.1532C252,-213.7566 252,-252 252,-252 252,-252 1387.1027,-252 1387.1027,-252"/>
<polygon fill="#000000" stroke="#000000" points="1387.1027,-255.5001 1397.1027,-252 1387.1027,-248.5001 1387.1027,-255.5001"/>
</g>
<!-- AdminRoutingModule -->
<g id="node3" class="node">
<title>AdminRoutingModule</title>
<polygon fill="#8dd3c7" stroke="#000000" points="167.5561,-122 164.5561,-126 143.5561,-126 140.5561,-122 24.4439,-122 24.4439,-86 167.5561,-86 167.5561,-122"/>
<text text-anchor="middle" x="96" y="-99.8" font-family="Times,serif" font-size="14.00" fill="#000000">AdminRoutingModule</text>
</g>
<!-- AdminRoutingModule&#45;&gt;AdminModule -->
<g id="edge2" class="edge">
<title>AdminRoutingModule&#45;&gt;AdminModule</title>
<path fill="none" stroke="#000000" d="M96,-122.2228C96,-142.3652 96,-172 96,-172 96,-172 192.6406,-172 192.6406,-172"/>
<polygon fill="#000000" stroke="#000000" points="192.6407,-175.5001 202.6406,-172 192.6406,-168.5001 192.6407,-175.5001"/>
</g>
<!-- AddClubComponent -->
<g id="node4" class="node">
<title>AddClubComponent</title>
<polygon fill="#ffffb3" stroke="#000000" points="1807.1666,-190 1674.8334,-190 1674.8334,-154 1807.1666,-154 1807.1666,-190"/>
<text text-anchor="middle" x="1741" y="-167.8" font-family="Times,serif" font-size="14.00" fill="#000000">AddClubComponent</text>
</g>
<!-- AddClubComponent&#45;&gt;AppModule -->
<g id="edge3" class="edge">
<title>AddClubComponent&#45;&gt;AppModule</title>
<path fill="none" stroke="#000000" d="M1741,-190.0091C1741,-206.0494 1741,-227 1741,-227 1741,-227 1490.6747,-227 1490.6747,-227"/>
<polygon fill="#000000" stroke="#000000" points="1490.6748,-223.5001 1480.6747,-227 1490.6747,-230.5001 1490.6748,-223.5001"/>
</g>
<!-- AppComponent -->
<g id="node5" class="node">
<title>AppComponent</title>
<polygon fill="#ffffb3" stroke="#000000" points="1656.9399,-190 1551.0601,-190 1551.0601,-154 1656.9399,-154 1656.9399,-190"/>
<text text-anchor="middle" x="1604" y="-167.8" font-family="Times,serif" font-size="14.00" fill="#000000">AppComponent</text>
</g>
<!-- AppComponent&#45;&gt;AppModule -->
<g id="edge4" class="edge">
<title>AppComponent&#45;&gt;AppModule</title>
<path fill="none" stroke="#000000" d="M1604,-190.1243C1604,-204.7832 1604,-223 1604,-223 1604,-223 1491.0634,-223 1491.0634,-223"/>
<polygon fill="#000000" stroke="#000000" points="1491.0634,-219.5001 1481.0634,-223 1491.0634,-226.5001 1491.0634,-219.5001"/>
</g>
<!-- ChangeProfilePageComponent -->
<g id="node6" class="node">
<title>ChangeProfilePageComponent</title>
<polygon fill="#ffffb3" stroke="#000000" points="1533.91,-190 1344.09,-190 1344.09,-154 1533.91,-154 1533.91,-190"/>
<text text-anchor="middle" x="1439" y="-167.8" font-family="Times,serif" font-size="14.00" fill="#000000">ChangeProfilePageComponent</text>
</g>
<!-- ChangeProfilePageComponent&#45;&gt;AppModule -->
<g id="edge5" class="edge">
<title>ChangeProfilePageComponent&#45;&gt;AppModule</title>
<path fill="none" stroke="#000000" d="M1439,-190.1061C1439,-190.1061 1439,-208.991 1439,-208.991"/>
<polygon fill="#000000" stroke="#000000" points="1435.5001,-208.9909 1439,-218.991 1442.5001,-208.991 1435.5001,-208.9909"/>
</g>
<!-- ChatLoginComponent -->
<g id="node7" class="node">
<title>ChatLoginComponent</title>
<polygon fill="#ffffb3" stroke="#000000" points="1326.7176,-190 1185.2824,-190 1185.2824,-154 1326.7176,-154 1326.7176,-190"/>
<text text-anchor="middle" x="1256" y="-167.8" font-family="Times,serif" font-size="14.00" fill="#000000">ChatLoginComponent</text>
</g>
<!-- ChatLoginComponent&#45;&gt;AppModule -->
<g id="edge6" class="edge">
<title>ChatLoginComponent&#45;&gt;AppModule</title>
<path fill="none" stroke="#000000" d="M1256,-190.1243C1256,-204.7832 1256,-223 1256,-223 1256,-223 1387.0161,-223 1387.0161,-223"/>
<polygon fill="#000000" stroke="#000000" points="1387.0161,-226.5001 1397.0161,-223 1387.0161,-219.5001 1387.0161,-226.5001"/>
</g>
<!-- CreateClubComponent -->
<g id="node8" class="node">
<title>CreateClubComponent</title>
<polygon fill="#ffffb3" stroke="#000000" points="1167.5912,-190 1022.4088,-190 1022.4088,-154 1167.5912,-154 1167.5912,-190"/>
<text text-anchor="middle" x="1095" y="-167.8" font-family="Times,serif" font-size="14.00" fill="#000000">CreateClubComponent</text>
</g>
<!-- CreateClubComponent&#45;&gt;AppModule -->
<g id="edge7" class="edge">
<title>CreateClubComponent&#45;&gt;AppModule</title>
<path fill="none" stroke="#000000" d="M1095,-190.0091C1095,-206.0494 1095,-227 1095,-227 1095,-227 1387.1628,-227 1387.1628,-227"/>
<polygon fill="#000000" stroke="#000000" points="1387.1628,-230.5001 1397.1628,-227 1387.1627,-223.5001 1387.1628,-230.5001"/>
</g>
<!-- DetailedViewComponent -->
<g id="node9" class="node">
<title>DetailedViewComponent</title>
<polygon fill="#ffffb3" stroke="#000000" points="2907.573,-190 2748.427,-190 2748.427,-154 2907.573,-154 2907.573,-190"/>
<text text-anchor="middle" x="2828" y="-167.8" font-family="Times,serif" font-size="14.00" fill="#000000">DetailedViewComponent</text>
</g>
<!-- DetailedViewComponent&#45;&gt;AppModule -->
<g id="edge8" class="edge">
<title>DetailedViewComponent&#45;&gt;AppModule</title>
<path fill="none" stroke="#000000" d="M2828,-190.1532C2828,-213.7566 2828,-252 2828,-252 2828,-252 1490.9484,-252 1490.9484,-252"/>
<polygon fill="#000000" stroke="#000000" points="1490.9485,-248.5001 1480.9484,-252 1490.9484,-255.5001 1490.9485,-248.5001"/>
</g>
<!-- EditClubComponent -->
<g id="node10" class="node">
<title>EditClubComponent</title>
<polygon fill="#ffffb3" stroke="#000000" points="2730.8934,-190 2599.1066,-190 2599.1066,-154 2730.8934,-154 2730.8934,-190"/>
<text text-anchor="middle" x="2665" y="-167.8" font-family="Times,serif" font-size="14.00" fill="#000000">EditClubComponent</text>
</g>
<!-- EditClubComponent&#45;&gt;AppModule -->
<g id="edge9" class="edge">
<title>EditClubComponent&#45;&gt;AppModule</title>
<path fill="none" stroke="#000000" d="M2665,-190.0109C2665,-212.4852 2665,-248 2665,-248 2665,-248 1490.847,-248 1490.847,-248"/>
<polygon fill="#000000" stroke="#000000" points="1490.8471,-244.5001 1480.847,-248 1490.847,-251.5001 1490.8471,-244.5001"/>
</g>
<!-- GroupViewComponent -->
<g id="node11" class="node">
<title>GroupViewComponent</title>
<polygon fill="#ffffb3" stroke="#000000" points="2580.9186,-190 2433.0814,-190 2433.0814,-154 2580.9186,-154 2580.9186,-190"/>
<text text-anchor="middle" x="2507" y="-167.8" font-family="Times,serif" font-size="14.00" fill="#000000">GroupViewComponent</text>
</g>
<!-- GroupViewComponent&#45;&gt;AppModule -->
<g id="edge10" class="edge">
<title>GroupViewComponent&#45;&gt;AppModule</title>
<path fill="none" stroke="#000000" d="M2507,-190.0449C2507,-211.6623 2507,-245 2507,-245 2507,-245 1490.8669,-245 1490.8669,-245"/>
<polygon fill="#000000" stroke="#000000" points="1490.8669,-241.5001 1480.8669,-245 1490.8668,-248.5001 1490.8669,-241.5001"/>
</g>
<!-- HeaderComponent -->
<g id="node12" class="node">
<title>HeaderComponent</title>
<polygon fill="#ffffb3" stroke="#000000" points="2414.7437,-190 2293.2563,-190 2293.2563,-154 2414.7437,-154 2414.7437,-190"/>
<text text-anchor="middle" x="2354" y="-167.8" font-family="Times,serif" font-size="14.00" fill="#000000">HeaderComponent</text>
</g>
<!-- HeaderComponent&#45;&gt;AppModule -->
<g id="edge11" class="edge">
<title>HeaderComponent&#45;&gt;AppModule</title>
<path fill="none" stroke="#000000" d="M2354,-190.1289C2354,-210.5724 2354,-241 2354,-241 2354,-241 1490.6933,-241 1490.6933,-241"/>
<polygon fill="#000000" stroke="#000000" points="1490.6933,-237.5001 1480.6933,-241 1490.6933,-244.5001 1490.6933,-237.5001"/>
</g>
<!-- HomeComponent -->
<g id="node13" class="node">
<title>HomeComponent</title>
<polygon fill="#ffffb3" stroke="#000000" points="2274.5451,-190 2159.4549,-190 2159.4549,-154 2274.5451,-154 2274.5451,-190"/>
<text text-anchor="middle" x="2217" y="-167.8" font-family="Times,serif" font-size="14.00" fill="#000000">HomeComponent</text>
</g>
<!-- HomeComponent&#45;&gt;AppModule -->
<g id="edge12" class="edge">
<title>HomeComponent&#45;&gt;AppModule</title>
<path fill="none" stroke="#000000" d="M2217,-190.1061C2217,-209.3391 2217,-237 2217,-237 2217,-237 1490.8287,-237 1490.8287,-237"/>
<polygon fill="#000000" stroke="#000000" points="1490.8287,-233.5001 1480.8287,-237 1490.8286,-240.5001 1490.8287,-233.5001"/>
</g>
<!-- JoinedClubsComponent -->
<g id="node14" class="node">
<title>JoinedClubsComponent</title>
<polygon fill="#ffffb3" stroke="#000000" points="2141.0547,-190 1990.9453,-190 1990.9453,-154 2141.0547,-154 2141.0547,-190"/>
<text text-anchor="middle" x="2066" y="-167.8" font-family="Times,serif" font-size="14.00" fill="#000000">JoinedClubsComponent</text>
</g>
<!-- JoinedClubsComponent&#45;&gt;AppModule -->
<g id="edge13" class="edge">
<title>JoinedClubsComponent&#45;&gt;AppModule</title>
<path fill="none" stroke="#000000" d="M2066,-190.2667C2066,-208.5552 2066,-234 2066,-234 2066,-234 1491.1128,-234 1491.1128,-234"/>
<polygon fill="#000000" stroke="#000000" points="1491.1129,-230.5001 1481.1128,-234 1491.1128,-237.5001 1491.1129,-230.5001"/>
</g>
<!-- ProfilePageComponent -->
<g id="node15" class="node">
<title>ProfilePageComponent</title>
<polygon fill="#ffffb3" stroke="#000000" points="1972.1442,-190 1825.8558,-190 1825.8558,-154 1972.1442,-154 1972.1442,-190"/>
<text text-anchor="middle" x="1899" y="-167.8" font-family="Times,serif" font-size="14.00" fill="#000000">ProfilePageComponent</text>
</g>
<!-- ProfilePageComponent&#45;&gt;AppModule -->
<g id="edge14" class="edge">
<title>ProfilePageComponent&#45;&gt;AppModule</title>
<path fill="none" stroke="#000000" d="M1899,-190.0336C1899,-207.0597 1899,-230 1899,-230 1899,-230 1491.0414,-230 1491.0414,-230"/>
<polygon fill="#000000" stroke="#000000" points="1491.0414,-226.5001 1481.0414,-230 1491.0413,-233.5001 1491.0414,-226.5001"/>
</g>
<!-- AppComponent  -->
<g id="node21" class="node">
<title>AppComponent </title>
<polygon fill="#80b1d3" stroke="#000000" points="1493.439,-320 1384.561,-320 1384.561,-284 1493.439,-284 1493.439,-320"/>
<text text-anchor="middle" x="1439" y="-297.8" font-family="Times,serif" font-size="14.00" fill="#000000">AppComponent </text>
</g>
<!-- AppModule&#45;&gt;AppComponent  -->
<g id="edge20" class="edge">
<title>AppModule&#45;&gt;AppComponent </title>
<path fill="none" stroke="#000000" stroke-dasharray="1,5" d="M1439,-255.1061C1439,-255.1061 1439,-273.991 1439,-273.991"/>
<polygon fill="#000000" stroke="#000000" points="1435.5001,-273.9909 1439,-283.991 1442.5001,-273.991 1435.5001,-273.9909"/>
</g>
<!-- AppRoutingModule -->
<g id="node17" class="node">
<title>AppRoutingModule</title>
<polygon fill="#8dd3c7" stroke="#000000" points="756.2744,-122 753.2744,-126 732.2744,-126 729.2744,-122 627.7256,-122 627.7256,-86 756.2744,-86 756.2744,-122"/>
<text text-anchor="middle" x="692" y="-99.8" font-family="Times,serif" font-size="14.00" fill="#000000">AppRoutingModule</text>
</g>
<!-- AppRoutingModule&#45;&gt;AppModule -->
<g id="edge16" class="edge">
<title>AppRoutingModule&#45;&gt;AppModule</title>
<path fill="none" stroke="#000000" d="M692,-122.1925C692,-159.4592 692,-241 692,-241 692,-241 1387.2374,-241 1387.2374,-241"/>
<polygon fill="#000000" stroke="#000000" points="1387.2374,-244.5001 1397.2374,-241 1387.2374,-237.5001 1387.2374,-244.5001"/>
</g>
<!-- AuthModule -->
<g id="node18" class="node">
<title>AuthModule</title>
<polygon fill="#8dd3c7" stroke="#000000" points="997.5482,-190 994.5482,-194 973.5482,-194 970.5482,-190 910.4518,-190 910.4518,-154 997.5482,-154 997.5482,-190"/>
<text text-anchor="middle" x="954" y="-167.8" font-family="Times,serif" font-size="14.00" fill="#000000">AuthModule</text>
</g>
<!-- AuthModule&#45;&gt;AppModule -->
<g id="edge17" class="edge">
<title>AuthModule&#45;&gt;AppModule</title>
<path fill="none" stroke="#000000" d="M954,-190.0336C954,-207.0597 954,-230 954,-230 954,-230 1387.2294,-230 1387.2294,-230"/>
<polygon fill="#000000" stroke="#000000" points="1387.2294,-233.5001 1397.2294,-230 1387.2294,-226.5001 1387.2294,-233.5001"/>
</g>
<!-- MaterialModule -->
<g id="node19" class="node">
<title>MaterialModule</title>
<polygon fill="#8dd3c7" stroke="#000000" points="881.4706,-122 878.4706,-126 857.4706,-126 854.4706,-122 774.5294,-122 774.5294,-86 881.4706,-86 881.4706,-122"/>
<text text-anchor="middle" x="828" y="-99.8" font-family="Times,serif" font-size="14.00" fill="#000000">MaterialModule</text>
</g>
<!-- MaterialModule&#45;&gt;AppModule -->
<g id="edge18" class="edge">
<title>MaterialModule&#45;&gt;AppModule</title>
<path fill="none" stroke="#000000" d="M828,-122.2142C828,-158.6396 828,-237 828,-237 828,-237 1387.0035,-237 1387.0035,-237"/>
<polygon fill="#000000" stroke="#000000" points="1387.0035,-240.5001 1397.0035,-237 1387.0035,-233.5001 1387.0035,-240.5001"/>
</g>
<!-- SharedModule -->
<g id="node20" class="node">
<title>SharedModule</title>
<polygon fill="#8dd3c7" stroke="#000000" points="998.4231,-122 995.4231,-126 974.4231,-126 971.4231,-122 899.5769,-122 899.5769,-86 998.4231,-86 998.4231,-122"/>
<text text-anchor="middle" x="949" y="-99.8" font-family="Times,serif" font-size="14.00" fill="#000000">SharedModule</text>
</g>
<!-- SharedModule&#45;&gt;AppModule -->
<g id="edge19" class="edge">
<title>SharedModule&#45;&gt;AppModule</title>
<path fill="none" stroke="#000000" d="M905.0077,-122.0759C905.0077,-157.7964 905.0077,-234 905.0077,-234 905.0077,-234 1387.0985,-234 1387.0985,-234"/>
<polygon fill="#000000" stroke="#000000" points="1387.0986,-237.5001 1397.0985,-234 1387.0985,-230.5001 1387.0986,-237.5001"/>
</g>
<!-- SharedModule&#45;&gt;AuthModule -->
<g id="edge26" class="edge">
<title>SharedModule&#45;&gt;AuthModule</title>
<path fill="none" stroke="#000000" d="M924.8177,-122.2228C924.8177,-122.2228 924.8177,-143.7269 924.8177,-143.7269"/>
<polygon fill="#000000" stroke="#000000" points="921.3178,-143.7269 924.8177,-153.7269 928.3178,-143.727 921.3178,-143.7269"/>
</g>
<!-- ClubService -->
<g id="node22" class="node">
<title>ClubService</title>
<ellipse fill="#fdb462" stroke="#000000" cx="411" cy="-172" rx="58.5463" ry="18"/>
<text text-anchor="middle" x="411" y="-167.8" font-family="Times,serif" font-size="14.00" fill="#000000">ClubService</text>
</g>
<!-- ClubService&#45;&gt;AppModule -->
<g id="edge21" class="edge">
<title>ClubService&#45;&gt;AppModule</title>
<path fill="none" stroke="#000000" d="M411,-190.0109C411,-212.4852 411,-248 411,-248 411,-248 1387.1069,-248 1387.1069,-248"/>
<polygon fill="#000000" stroke="#000000" points="1387.1069,-251.5001 1397.1069,-248 1387.1068,-244.5001 1387.1069,-251.5001"/>
</g>
<!-- UserService -->
<g id="node23" class="node">
<title>UserService</title>
<ellipse fill="#fdb462" stroke="#000000" cx="546" cy="-172" rx="58.4415" ry="18"/>
<text text-anchor="middle" x="546" y="-167.8" font-family="Times,serif" font-size="14.00" fill="#000000">UserService</text>
</g>
<!-- UserService&#45;&gt;AppModule -->
<g id="edge22" class="edge">
<title>UserService&#45;&gt;AppModule</title>
<path fill="none" stroke="#000000" d="M546,-190.0449C546,-211.6623 546,-245 546,-245 546,-245 1387.1265,-245 1387.1265,-245"/>
<polygon fill="#000000" stroke="#000000" points="1387.1265,-248.5001 1397.1265,-245 1387.1265,-241.5001 1387.1265,-248.5001"/>
</g>
<!-- LoginComponent -->
<g id="node24" class="node">
<title>LoginComponent</title>
<polygon fill="#ffffb3" stroke="#000000" points="3655.2758,-122 3540.7242,-122 3540.7242,-86 3655.2758,-86 3655.2758,-122"/>
<text text-anchor="middle" x="3598" y="-99.8" font-family="Times,serif" font-size="14.00" fill="#000000">LoginComponent</text>
</g>
<!-- LoginComponent&#45;&gt;AuthModule -->
<g id="edge23" class="edge">
<title>LoginComponent&#45;&gt;AuthModule</title>
<path fill="none" stroke="#000000" d="M3598,-122.1505C3598,-134.2708 3598,-148 3598,-148 3598,-148 983.1823,-148 983.1823,-148 983.1823,-148 983.1823,-148.581 983.1823,-148.581"/>
<polygon fill="#000000" stroke="#000000" points="979.6825,-143.8097 983.1823,-153.8097 986.6825,-143.8098 979.6825,-143.8097"/>
</g>
<!-- RegisterComponent -->
<g id="node25" class="node">
<title>RegisterComponent</title>
<polygon fill="#ffffb3" stroke="#000000" points="3522.9846,-122 3395.0154,-122 3395.0154,-86 3522.9846,-86 3522.9846,-122"/>
<text text-anchor="middle" x="3459" y="-99.8" font-family="Times,serif" font-size="14.00" fill="#000000">RegisterComponent</text>
</g>
<!-- RegisterComponent&#45;&gt;AuthModule -->
<g id="edge24" class="edge">
<title>RegisterComponent&#45;&gt;AuthModule</title>
<path fill="none" stroke="#000000" d="M3459,-122.1097C3459,-131.897 3459,-142 3459,-142 3459,-142 968.5912,-142 968.5912,-142 968.5912,-142 968.5912,-143.8568 968.5912,-143.8568"/>
<polygon fill="#000000" stroke="#000000" points="965.0913,-143.8568 968.5912,-153.8568 972.0913,-143.8568 965.0913,-143.8568"/>
</g>
<!-- AuthRoutingModule -->
<g id="node26" class="node">
<title>AuthRoutingModule</title>
<polygon fill="#8dd3c7" stroke="#000000" points="3371.1652,-122 3368.1652,-126 3347.1652,-126 3344.1652,-122 3238.8348,-122 3238.8348,-86 3371.1652,-86 3371.1652,-122"/>
<text text-anchor="middle" x="3305" y="-99.8" font-family="Times,serif" font-size="14.00" fill="#000000">AuthRoutingModule</text>
</g>
<!-- AuthRoutingModule&#45;&gt;AuthModule -->
<g id="edge25" class="edge">
<title>AuthRoutingModule&#45;&gt;AuthModule</title>
<path fill="none" stroke="#000000" d="M3305,-122.0328C3305,-128.8526 3305,-135 3305,-135 3305,-135 954,-135 954,-135 954,-135 954,-143.9336 954,-143.9336"/>
<polygon fill="#000000" stroke="#000000" points="950.5001,-143.9335 954,-153.9336 957.5001,-143.9336 950.5001,-143.9335"/>
</g>
<!-- AuthService -->
<g id="node27" class="node">
<title>AuthService</title>
<ellipse fill="#fdb462" stroke="#000000" cx="3156" cy="-104" rx="59.1083" ry="18"/>
<text text-anchor="middle" x="3156" y="-99.8" font-family="Times,serif" font-size="14.00" fill="#000000">AuthService</text>
</g>
<!-- AuthService&#45;&gt;AuthModule -->
<g id="edge27" class="edge">
<title>AuthService&#45;&gt;AuthModule</title>
<path fill="none" stroke="#000000" d="M3156,-122.1686C3156,-126.0459 3156,-129 3156,-129 3156,-129 939.4088,-129 939.4088,-129 939.4088,-129 939.4088,-143.5146 939.4088,-143.5146"/>
<polygon fill="#000000" stroke="#000000" points="935.9089,-143.5145 939.4088,-153.5146 942.9089,-143.5146 935.9089,-143.5145"/>
</g>
<!-- TokenStorage -->
<g id="node28" class="node">
<title>TokenStorage</title>
<ellipse fill="#fdb462" stroke="#000000" cx="3013" cy="-104" rx="65.4111" ry="18"/>
<text text-anchor="middle" x="3013" y="-99.8" font-family="Times,serif" font-size="14.00" fill="#000000">TokenStorage</text>
</g>
<!-- TokenStorage&#45;&gt;AuthModule -->
<g id="edge28" class="edge">
<title>TokenStorage&#45;&gt;AuthModule</title>
<path fill="none" stroke="#000000" d="M2947.7895,-104C2603.2318,-104 1010.3328,-104 1010.3328,-104 1010.3328,-104 1010.3328,-172 1010.3328,-172 1010.3328,-172 1007.55,-172 1007.55,-172"/>
<polygon fill="#000000" stroke="#000000" points="1007.55,-168.5001 997.55,-172 1007.5499,-175.5001 1007.55,-168.5001"/>
</g>
</g>
</svg>
