<?xml version="1.0" encoding="UTF-8" standalone="no"?>
<!DOCTYPE svg PUBLIC "-//W3C//DTD SVG 1.1//EN"
 "http://www.w3.org/Graphics/SVG/1.1/DTD/svg11.dtd">
<!-- Generated by graphviz version 2.40.1 (20161225.0304)
 -->
<!-- Title: dependencies Pages: 1 -->
<svg width="3200pt" height="352pt"
 viewBox="0.00 0.00 3200.00 352.00" xmlns="http://www.w3.org/2000/svg" xmlns:xlink="http://www.w3.org/1999/xlink">
<g id="graph0" class="graph" transform="scale(1 1) rotate(0) translate(4 348)">
<title>dependencies</title>
<polygon fill="#ffffff" stroke="transparent" points="-4,4 -4,-348 3196,-348 3196,4 -4,4"/>
<text text-anchor="start" x="1575.0091" y="-42.4" font-family="sans-serif" font-weight="bold" font-size="14.00" fill="#000000">Legend</text>
<polygon fill="#ffffb3" stroke="transparent" points="1362,-10 1362,-30 1382,-30 1382,-10 1362,-10"/>
<text text-anchor="start" x="1385.629" y="-15.4" font-family="sans-serif" font-size="14.00" fill="#000000"> &#160;Declarations</text>
<polygon fill="#8dd3c7" stroke="transparent" points="1475,-10 1475,-30 1495,-30 1495,-10 1475,-10"/>
<text text-anchor="start" x="1498.7251" y="-15.4" font-family="sans-serif" font-size="14.00" fill="#000000"> &#160;Module</text>
<polygon fill="#80b1d3" stroke="transparent" points="1561,-10 1561,-30 1581,-30 1581,-10 1561,-10"/>
<text text-anchor="start" x="1584.7812" y="-15.4" font-family="sans-serif" font-size="14.00" fill="#000000"> &#160;Bootstrap</text>
<polygon fill="#fdb462" stroke="transparent" points="1658,-10 1658,-30 1678,-30 1678,-10 1658,-10"/>
<text text-anchor="start" x="1681.6732" y="-15.4" font-family="sans-serif" font-size="14.00" fill="#000000"> &#160;Providers</text>
<polygon fill="#fb8072" stroke="transparent" points="1754,-10 1754,-30 1774,-30 1774,-10 1754,-10"/>
<text text-anchor="start" x="1777.7258" y="-15.4" font-family="sans-serif" font-size="14.00" fill="#000000"> &#160;Exports</text>
<g id="clust1" class="cluster">
<title>cluster_AppModule</title>
<polygon fill="none" stroke="#000000" stroke-dasharray="1,5" points="8,-70 8,-336 2437,-336 2437,-70 8,-70"/>
</g>
<g id="clust2" class="cluster">
<title>cluster_AppModule_declarations</title>
<polygon fill="none" stroke="#000000" points="686,-146 686,-198 2429,-198 2429,-146 686,-146"/>
</g>
<g id="clust14" class="cluster">
<title>cluster_AppModule_imports</title>
<polygon fill="none" stroke="#000000" points="292,-78 292,-198 678,-198 678,-78 292,-78"/>
</g>
<g id="clust16" class="cluster">
<title>cluster_AppModule_bootstrap</title>
<polygon fill="none" stroke="#000000" points="1067,-276 1067,-328 1191,-328 1191,-276 1067,-276"/>
</g>
<g id="clust17" class="cluster">
<title>cluster_AppModule_providers</title>
<polygon fill="none" stroke="#000000" points="16,-146 16,-198 284,-198 284,-146 16,-146"/>
</g>
<g id="clust24" class="cluster">
<title>cluster_AuthModule</title>
<polygon fill="none" stroke="#000000" stroke-dasharray="1,5" points="2445,-70 2445,-138 3184,-138 3184,-70 2445,-70"/>
</g>
<g id="clust25" class="cluster">
<title>cluster_AuthModule_declarations</title>
<polygon fill="none" stroke="#000000" points="2900,-78 2900,-130 3176,-130 3176,-78 2900,-78"/>
</g>
<g id="clust28" class="cluster">
<title>cluster_AuthModule_imports</title>
<polygon fill="none" stroke="#000000" points="2744,-78 2744,-130 2892,-130 2892,-78 2744,-78"/>
</g>
<g id="clust31" class="cluster">
<title>cluster_AuthModule_providers</title>
<polygon fill="none" stroke="#000000" points="2453,-78 2453,-130 2736,-130 2736,-78 2453,-78"/>
</g>
<!-- AddClubComponent -->
<g id="node1" class="node">
<title>AddClubComponent</title>
<polygon fill="#ffffb3" stroke="#000000" points="1497.1666,-190 1364.8334,-190 1364.8334,-154 1497.1666,-154 1497.1666,-190"/>
<text text-anchor="middle" x="1431" y="-167.8" font-family="Times,serif" font-size="14.00" fill="#000000">AddClubComponent</text>
</g>
<!-- AppModule -->
<g id="node12" class="node">
<title>AppModule</title>
<polygon fill="#8dd3c7" stroke="#000000" points="1170.6571,-255 1167.6571,-259 1146.6571,-259 1143.6571,-255 1087.3429,-255 1087.3429,-219 1170.6571,-219 1170.6571,-255"/>
<text text-anchor="middle" x="1129" y="-232.8" font-family="Times,serif" font-size="14.00" fill="#000000">AppModule</text>
</g>
<!-- AddClubComponent&#45;&gt;AppModule -->
<g id="edge1" class="edge">
<title>AddClubComponent&#45;&gt;AppModule</title>
<path fill="none" stroke="#000000" d="M1431,-190.0091C1431,-206.0494 1431,-227 1431,-227 1431,-227 1180.6747,-227 1180.6747,-227"/>
<polygon fill="#000000" stroke="#000000" points="1180.6748,-223.5001 1170.6747,-227 1180.6747,-230.5001 1180.6748,-223.5001"/>
</g>
<!-- AppComponent -->
<g id="node2" class="node">
<title>AppComponent</title>
<polygon fill="#ffffb3" stroke="#000000" points="1346.9399,-190 1241.0601,-190 1241.0601,-154 1346.9399,-154 1346.9399,-190"/>
<text text-anchor="middle" x="1294" y="-167.8" font-family="Times,serif" font-size="14.00" fill="#000000">AppComponent</text>
</g>
<!-- AppComponent&#45;&gt;AppModule -->
<g id="edge2" class="edge">
<title>AppComponent&#45;&gt;AppModule</title>
<path fill="none" stroke="#000000" d="M1294,-190.1243C1294,-204.7832 1294,-223 1294,-223 1294,-223 1181.0634,-223 1181.0634,-223"/>
<polygon fill="#000000" stroke="#000000" points="1181.0634,-219.5001 1171.0634,-223 1181.0634,-226.5001 1181.0634,-219.5001"/>
</g>
<!-- ChangeProfilePageComponent -->
<g id="node3" class="node">
<title>ChangeProfilePageComponent</title>
<polygon fill="#ffffb3" stroke="#000000" points="1223.91,-190 1034.09,-190 1034.09,-154 1223.91,-154 1223.91,-190"/>
<text text-anchor="middle" x="1129" y="-167.8" font-family="Times,serif" font-size="14.00" fill="#000000">ChangeProfilePageComponent</text>
</g>
<!-- ChangeProfilePageComponent&#45;&gt;AppModule -->
<g id="edge3" class="edge">
<title>ChangeProfilePageComponent&#45;&gt;AppModule</title>
<path fill="none" stroke="#000000" d="M1129,-190.1061C1129,-190.1061 1129,-208.991 1129,-208.991"/>
<polygon fill="#000000" stroke="#000000" points="1125.5001,-208.9909 1129,-218.991 1132.5001,-208.991 1125.5001,-208.9909"/>
</g>
<!-- CreateClubComponent -->
<g id="node4" class="node">
<title>CreateClubComponent</title>
<polygon fill="#ffffb3" stroke="#000000" points="1016.5912,-190 871.4088,-190 871.4088,-154 1016.5912,-154 1016.5912,-190"/>
<text text-anchor="middle" x="944" y="-167.8" font-family="Times,serif" font-size="14.00" fill="#000000">CreateClubComponent</text>
</g>
<!-- CreateClubComponent&#45;&gt;AppModule -->
<g id="edge4" class="edge">
<title>CreateClubComponent&#45;&gt;AppModule</title>
<path fill="none" stroke="#000000" d="M944,-190.1243C944,-204.7832 944,-223 944,-223 944,-223 1077.0206,-223 1077.0206,-223"/>
<polygon fill="#000000" stroke="#000000" points="1077.0207,-226.5001 1087.0206,-223 1077.0206,-219.5001 1077.0207,-226.5001"/>
</g>
<!-- DetailedViewComponent -->
<g id="node5" class="node">
<title>DetailedViewComponent</title>
<polygon fill="#ffffb3" stroke="#000000" points="853.573,-190 694.427,-190 694.427,-154 853.573,-154 853.573,-190"/>
<text text-anchor="middle" x="774" y="-167.8" font-family="Times,serif" font-size="14.00" fill="#000000">DetailedViewComponent</text>
</g>
<!-- DetailedViewComponent&#45;&gt;AppModule -->
<g id="edge5" class="edge">
<title>DetailedViewComponent&#45;&gt;AppModule</title>
<path fill="none" stroke="#000000" d="M774,-190.0091C774,-206.0494 774,-227 774,-227 774,-227 1077.2331,-227 1077.2331,-227"/>
<polygon fill="#000000" stroke="#000000" points="1077.2331,-230.5001 1087.2331,-227 1077.233,-223.5001 1077.2331,-230.5001"/>
</g>
<!-- EditClubComponent -->
<g id="node6" class="node">
<title>EditClubComponent</title>
<polygon fill="#ffffb3" stroke="#000000" points="2420.8934,-190 2289.1066,-190 2289.1066,-154 2420.8934,-154 2420.8934,-190"/>
<text text-anchor="middle" x="2355" y="-167.8" font-family="Times,serif" font-size="14.00" fill="#000000">EditClubComponent</text>
</g>
<!-- EditClubComponent&#45;&gt;AppModule -->
<g id="edge6" class="edge">
<title>EditClubComponent&#45;&gt;AppModule</title>
<path fill="none" stroke="#000000" d="M2355,-190.3228C2355,-213.6602 2355,-251 2355,-251 2355,-251 1180.847,-251 1180.847,-251"/>
<polygon fill="#000000" stroke="#000000" points="1180.8471,-247.5001 1170.847,-251 1180.847,-254.5001 1180.8471,-247.5001"/>
</g>
<!-- GroupViewComponent -->
<g id="node7" class="node">
<title>GroupViewComponent</title>
<polygon fill="#ffffb3" stroke="#000000" points="2270.9186,-190 2123.0814,-190 2123.0814,-154 2270.9186,-154 2270.9186,-190"/>
<text text-anchor="middle" x="2197" y="-167.8" font-family="Times,serif" font-size="14.00" fill="#000000">GroupViewComponent</text>
</g>
<!-- GroupViewComponent&#45;&gt;AppModule -->
<g id="edge7" class="edge">
<title>GroupViewComponent&#45;&gt;AppModule</title>
<path fill="none" stroke="#000000" d="M2197,-190.1554C2197,-212.3519 2197,-247 2197,-247 2197,-247 1180.8669,-247 1180.8669,-247"/>
<polygon fill="#000000" stroke="#000000" points="1180.8669,-243.5001 1170.8669,-247 1180.8668,-250.5001 1180.8669,-243.5001"/>
</g>
<!-- HeaderComponent -->
<g id="node8" class="node">
<title>HeaderComponent</title>
<polygon fill="#ffffb3" stroke="#000000" points="2104.7437,-190 1983.2563,-190 1983.2563,-154 2104.7437,-154 2104.7437,-190"/>
<text text-anchor="middle" x="2044" y="-167.8" font-family="Times,serif" font-size="14.00" fill="#000000">HeaderComponent</text>
</g>
<!-- HeaderComponent&#45;&gt;AppModule -->
<g id="edge8" class="edge">
<title>HeaderComponent&#45;&gt;AppModule</title>
<path fill="none" stroke="#000000" d="M2044,-190.2843C2044,-211.3211 2044,-243 2044,-243 2044,-243 1180.6933,-243 1180.6933,-243"/>
<polygon fill="#000000" stroke="#000000" points="1180.6933,-239.5001 1170.6933,-243 1180.6933,-246.5001 1180.6933,-239.5001"/>
</g>
<!-- HomeComponent -->
<g id="node9" class="node">
<title>HomeComponent</title>
<polygon fill="#ffffb3" stroke="#000000" points="1964.5451,-190 1849.4549,-190 1849.4549,-154 1964.5451,-154 1964.5451,-190"/>
<text text-anchor="middle" x="1907" y="-167.8" font-family="Times,serif" font-size="14.00" fill="#000000">HomeComponent</text>
</g>
<!-- HomeComponent&#45;&gt;AppModule -->
<g id="edge9" class="edge">
<title>HomeComponent&#45;&gt;AppModule</title>
<path fill="none" stroke="#000000" d="M1907,-190.308C1907,-210.1455 1907,-239 1907,-239 1907,-239 1180.8287,-239 1180.8287,-239"/>
<polygon fill="#000000" stroke="#000000" points="1180.8287,-235.5001 1170.8287,-239 1180.8286,-242.5001 1180.8287,-235.5001"/>
</g>
<!-- JoinedClubsComponent -->
<g id="node10" class="node">
<title>JoinedClubsComponent</title>
<polygon fill="#ffffb3" stroke="#000000" points="1831.0547,-190 1680.9453,-190 1680.9453,-154 1831.0547,-154 1831.0547,-190"/>
<text text-anchor="middle" x="1756" y="-167.8" font-family="Times,serif" font-size="14.00" fill="#000000">JoinedClubsComponent</text>
</g>
<!-- JoinedClubsComponent&#45;&gt;AppModule -->
<g id="edge10" class="edge">
<title>JoinedClubsComponent&#45;&gt;AppModule</title>
<path fill="none" stroke="#000000" d="M1756,-190.2222C1756,-208.8285 1756,-235 1756,-235 1756,-235 1181.1128,-235 1181.1128,-235"/>
<polygon fill="#000000" stroke="#000000" points="1181.1129,-231.5001 1171.1128,-235 1181.1128,-238.5001 1181.1129,-231.5001"/>
</g>
<!-- ProfilePageComponent -->
<g id="node11" class="node">
<title>ProfilePageComponent</title>
<polygon fill="#ffffb3" stroke="#000000" points="1662.1442,-190 1515.8558,-190 1515.8558,-154 1662.1442,-154 1662.1442,-190"/>
<text text-anchor="middle" x="1589" y="-167.8" font-family="Times,serif" font-size="14.00" fill="#000000">ProfilePageComponent</text>
</g>
<!-- ProfilePageComponent&#45;&gt;AppModule -->
<g id="edge11" class="edge">
<title>ProfilePageComponent&#45;&gt;AppModule</title>
<path fill="none" stroke="#000000" d="M1589,-190.0225C1589,-207.3734 1589,-231 1589,-231 1589,-231 1181.0414,-231 1181.0414,-231"/>
<polygon fill="#000000" stroke="#000000" points="1181.0414,-227.5001 1171.0414,-231 1181.0413,-234.5001 1181.0414,-227.5001"/>
</g>
<!-- AppComponent  -->
<g id="node17" class="node">
<title>AppComponent </title>
<polygon fill="#80b1d3" stroke="#000000" points="1183.439,-320 1074.561,-320 1074.561,-284 1183.439,-284 1183.439,-320"/>
<text text-anchor="middle" x="1129" y="-297.8" font-family="Times,serif" font-size="14.00" fill="#000000">AppComponent </text>
</g>
<!-- AppModule&#45;&gt;AppComponent  -->
<g id="edge16" class="edge">
<title>AppModule&#45;&gt;AppComponent </title>
<path fill="none" stroke="#000000" stroke-dasharray="1,5" d="M1129,-255.1061C1129,-255.1061 1129,-273.991 1129,-273.991"/>
<polygon fill="#000000" stroke="#000000" points="1125.5001,-273.9909 1129,-283.991 1132.5001,-273.991 1125.5001,-273.9909"/>
</g>
<!-- AppRoutingModule -->
<g id="node13" class="node">
<title>AppRoutingModule</title>
<polygon fill="#8dd3c7" stroke="#000000" points="553.2744,-122 550.2744,-126 529.2744,-126 526.2744,-122 424.7256,-122 424.7256,-86 553.2744,-86 553.2744,-122"/>
<text text-anchor="middle" x="489" y="-99.8" font-family="Times,serif" font-size="14.00" fill="#000000">AppRoutingModule</text>
</g>
<!-- AppRoutingModule&#45;&gt;AppModule -->
<g id="edge12" class="edge">
<title>AppRoutingModule&#45;&gt;AppModule</title>
<path fill="none" stroke="#000000" d="M489,-122.2067C489,-159.0559 489,-239 489,-239 489,-239 1077.0078,-239 1077.0078,-239"/>
<polygon fill="#000000" stroke="#000000" points="1077.0078,-242.5001 1087.0078,-239 1077.0078,-235.5001 1077.0078,-242.5001"/>
</g>
<!-- AuthModule -->
<g id="node14" class="node">
<title>AuthModule</title>
<polygon fill="#8dd3c7" stroke="#000000" points="669.5482,-190 666.5482,-194 645.5482,-194 642.5482,-190 582.4518,-190 582.4518,-154 669.5482,-154 669.5482,-190"/>
<text text-anchor="middle" x="626" y="-167.8" font-family="Times,serif" font-size="14.00" fill="#000000">AuthModule</text>
</g>
<!-- AuthModule&#45;&gt;AppModule -->
<g id="edge13" class="edge">
<title>AuthModule&#45;&gt;AppModule</title>
<path fill="none" stroke="#000000" d="M626,-190.0225C626,-207.3734 626,-231 626,-231 626,-231 1076.9797,-231 1076.9797,-231"/>
<polygon fill="#000000" stroke="#000000" points="1076.9797,-234.5001 1086.9797,-231 1076.9796,-227.5001 1076.9797,-234.5001"/>
</g>
<!-- MaterialModule -->
<g id="node15" class="node">
<title>MaterialModule</title>
<polygon fill="#8dd3c7" stroke="#000000" points="406.4706,-122 403.4706,-126 382.4706,-126 379.4706,-122 299.5294,-122 299.5294,-86 406.4706,-86 406.4706,-122"/>
<text text-anchor="middle" x="353" y="-99.8" font-family="Times,serif" font-size="14.00" fill="#000000">MaterialModule</text>
</g>
<!-- MaterialModule&#45;&gt;AppModule -->
<g id="edge14" class="edge">
<title>MaterialModule&#45;&gt;AppModule</title>
<path fill="none" stroke="#000000" d="M353,-122.1718C353,-159.8494 353,-243 353,-243 353,-243 1077.2789,-243 1077.2789,-243"/>
<polygon fill="#000000" stroke="#000000" points="1077.2789,-246.5001 1087.2789,-243 1077.2788,-239.5001 1077.2789,-246.5001"/>
</g>
<!-- SharedModule -->
<g id="node16" class="node">
<title>SharedModule</title>
<polygon fill="#8dd3c7" stroke="#000000" points="670.4231,-122 667.4231,-126 646.4231,-126 643.4231,-122 571.5769,-122 571.5769,-86 670.4231,-86 670.4231,-122"/>
<text text-anchor="middle" x="621" y="-99.8" font-family="Times,serif" font-size="14.00" fill="#000000">SharedModule</text>
</g>
<!-- SharedModule&#45;&gt;AppModule -->
<g id="edge15" class="edge">
<title>SharedModule&#45;&gt;AppModule</title>
<path fill="none" stroke="#000000" d="M577.0077,-122.215C577.0077,-158.2102 577.0077,-235 577.0077,-235 577.0077,-235 1077.0578,-235 1077.0578,-235"/>
<polygon fill="#000000" stroke="#000000" points="1077.0578,-238.5001 1087.0578,-235 1077.0578,-231.5001 1077.0578,-238.5001"/>
</g>
<!-- SharedModule&#45;&gt;AuthModule -->
<g id="edge22" class="edge">
<title>SharedModule&#45;&gt;AuthModule</title>
<path fill="none" stroke="#000000" d="M596.8177,-122.2228C596.8177,-122.2228 596.8177,-143.7269 596.8177,-143.7269"/>
<polygon fill="#000000" stroke="#000000" points="593.3178,-143.7269 596.8177,-153.7269 600.3178,-143.727 593.3178,-143.7269"/>
</g>
<!-- ClubService -->
<g id="node18" class="node">
<title>ClubService</title>
<ellipse fill="#fdb462" stroke="#000000" cx="83" cy="-172" rx="58.5463" ry="18"/>
<text text-anchor="middle" x="83" y="-167.8" font-family="Times,serif" font-size="14.00" fill="#000000">ClubService</text>
</g>
<!-- ClubService&#45;&gt;AppModule -->
<g id="edge17" class="edge">
<title>ClubService&#45;&gt;AppModule</title>
<path fill="none" stroke="#000000" d="M83,-190.3228C83,-213.6602 83,-251 83,-251 83,-251 1077.0256,-251 1077.0256,-251"/>
<polygon fill="#000000" stroke="#000000" points="1077.0257,-254.5001 1087.0256,-251 1077.0256,-247.5001 1077.0257,-254.5001"/>
</g>
<!-- UserService -->
<g id="node19" class="node">
<title>UserService</title>
<ellipse fill="#fdb462" stroke="#000000" cx="218" cy="-172" rx="58.4415" ry="18"/>
<text text-anchor="middle" x="218" y="-167.8" font-family="Times,serif" font-size="14.00" fill="#000000">UserService</text>
</g>
<!-- UserService&#45;&gt;AppModule -->
<g id="edge18" class="edge">
<title>UserService&#45;&gt;AppModule</title>
<path fill="none" stroke="#000000" d="M218,-190.1554C218,-212.3519 218,-247 218,-247 218,-247 1077.1888,-247 1077.1888,-247"/>
<polygon fill="#000000" stroke="#000000" points="1077.1888,-250.5001 1087.1888,-247 1077.1888,-243.5001 1077.1888,-250.5001"/>
</g>
<!-- LoginComponent -->
<g id="node20" class="node">
<title>LoginComponent</title>
<polygon fill="#ffffb3" stroke="#000000" points="3168.2758,-122 3053.7242,-122 3053.7242,-86 3168.2758,-86 3168.2758,-122"/>
<text text-anchor="middle" x="3111" y="-99.8" font-family="Times,serif" font-size="14.00" fill="#000000">LoginComponent</text>
</g>
<!-- LoginComponent&#45;&gt;AuthModule -->
<g id="edge19" class="edge">
<title>LoginComponent&#45;&gt;AuthModule</title>
<path fill="none" stroke="#000000" d="M3111,-122.1505C3111,-134.2708 3111,-148 3111,-148 3111,-148 655.1823,-148 655.1823,-148 655.1823,-148 655.1823,-148.581 655.1823,-148.581"/>
<polygon fill="#000000" stroke="#000000" points="651.6825,-143.8097 655.1823,-153.8097 658.6825,-143.8098 651.6825,-143.8097"/>
</g>
<!-- RegisterComponent -->
<g id="node21" class="node">
<title>RegisterComponent</title>
<polygon fill="#ffffb3" stroke="#000000" points="3035.9846,-122 2908.0154,-122 2908.0154,-86 3035.9846,-86 3035.9846,-122"/>
<text text-anchor="middle" x="2972" y="-99.8" font-family="Times,serif" font-size="14.00" fill="#000000">RegisterComponent</text>
</g>
<!-- RegisterComponent&#45;&gt;AuthModule -->
<g id="edge20" class="edge">
<title>RegisterComponent&#45;&gt;AuthModule</title>
<path fill="none" stroke="#000000" d="M2972,-122.1097C2972,-131.897 2972,-142 2972,-142 2972,-142 640.5912,-142 640.5912,-142 640.5912,-142 640.5912,-143.8568 640.5912,-143.8568"/>
<polygon fill="#000000" stroke="#000000" points="637.0913,-143.8568 640.5912,-153.8568 644.0913,-143.8568 637.0913,-143.8568"/>
</g>
<!-- AuthRoutingModule -->
<g id="node22" class="node">
<title>AuthRoutingModule</title>
<polygon fill="#8dd3c7" stroke="#000000" points="2884.1652,-122 2881.1652,-126 2860.1652,-126 2857.1652,-122 2751.8348,-122 2751.8348,-86 2884.1652,-86 2884.1652,-122"/>
<text text-anchor="middle" x="2818" y="-99.8" font-family="Times,serif" font-size="14.00" fill="#000000">AuthRoutingModule</text>
</g>
<!-- AuthRoutingModule&#45;&gt;AuthModule -->
<g id="edge21" class="edge">
<title>AuthRoutingModule&#45;&gt;AuthModule</title>
<path fill="none" stroke="#000000" d="M2818,-122.0328C2818,-128.8526 2818,-135 2818,-135 2818,-135 626,-135 626,-135 626,-135 626,-143.9336 626,-143.9336"/>
<polygon fill="#000000" stroke="#000000" points="622.5001,-143.9335 626,-153.9336 629.5001,-143.9336 622.5001,-143.9335"/>
</g>
<!-- AuthService -->
<g id="node23" class="node">
<title>AuthService</title>
<ellipse fill="#fdb462" stroke="#000000" cx="2669" cy="-104" rx="59.1083" ry="18"/>
<text text-anchor="middle" x="2669" y="-99.8" font-family="Times,serif" font-size="14.00" fill="#000000">AuthService</text>
</g>
<!-- AuthService&#45;&gt;AuthModule -->
<g id="edge23" class="edge">
<title>AuthService&#45;&gt;AuthModule</title>
<path fill="none" stroke="#000000" d="M2669,-122.1686C2669,-126.0459 2669,-129 2669,-129 2669,-129 611.4088,-129 611.4088,-129 611.4088,-129 611.4088,-143.5146 611.4088,-143.5146"/>
<polygon fill="#000000" stroke="#000000" points="607.9089,-143.5145 611.4088,-153.5146 614.9089,-143.5146 607.9089,-143.5145"/>
</g>
<!-- TokenStorage -->
<g id="node24" class="node">
<title>TokenStorage</title>
<ellipse fill="#fdb462" stroke="#000000" cx="2526" cy="-104" rx="65.4111" ry="18"/>
<text text-anchor="middle" x="2526" y="-99.8" font-family="Times,serif" font-size="14.00" fill="#000000">TokenStorage</text>
</g>
<!-- TokenStorage&#45;&gt;AuthModule -->
<g id="edge24" class="edge">
<title>TokenStorage&#45;&gt;AuthModule</title>
<path fill="none" stroke="#000000" d="M2460.6541,-104C2132.7526,-104 682.3373,-104 682.3373,-104 682.3373,-104 682.3373,-172 682.3373,-172 682.3373,-172 679.5535,-172 679.5535,-172"/>
<polygon fill="#000000" stroke="#000000" points="679.5535,-168.5001 669.5535,-172 679.5535,-175.5001 679.5535,-168.5001"/>
</g>
</g>
</svg>
